<?xml version="1.0" encoding="UTF-8"?>
<svg version="1.1" xmlns="http://www.w3.org/2000/svg" width="505" height="530">
<path d="M0 0 C1.367675 -0.00551503 1.367675 -0.00551503 2.76297981 -0.01114148 C5.82513125 -0.02217439 8.88724877 -0.0260215 11.94941711 -0.02983093 C14.14227405 -0.03609586 16.33512991 -0.04274269 18.52798462 -0.04974365 C25.73526775 -0.07078222 32.94255109 -0.08114555 40.14985657 -0.09111023 C42.63106103 -0.0951578 45.11226538 -0.09927472 47.59346962 -0.10346031 C58.58124565 -0.12141846 69.56901708 -0.13579734 80.55680518 -0.14363671 C82.56658209 -0.14507517 84.57635898 -0.14652654 86.58613586 -0.147995 C87.25141077 -0.14847874 87.91668568 -0.14896248 88.60212044 -0.14946087 C99.37553886 -0.15775856 110.14884616 -0.1830923 120.92221608 -0.21557567 C131.99086102 -0.24867644 143.05944666 -0.26632796 154.12814075 -0.26985329 C160.33964858 -0.27220402 166.55098071 -0.28116775 172.76244164 -0.30631447 C178.60735307 -0.32959502 184.45197309 -0.33382829 190.29691887 -0.32355309 C192.43946553 -0.32305762 194.58202653 -0.32938107 196.72452927 -0.34310913 C199.65548655 -0.36083502 202.58539878 -0.35371812 205.51635742 -0.34057617 C206.35898579 -0.35154542 207.20161415 -0.36251466 208.06977671 -0.37381631 C216.29590116 -0.28510883 222.99122058 2.43940952 228.85147095 8.29481506 C230.0982386 9.52260178 230.0982386 9.52260178 231.37019348 10.77519226 C232.24792419 11.66461517 233.12565491 12.55403809 234.02998352 13.47041321 C234.9892895 14.42457119 235.94966305 15.37765684 236.91101074 16.32975769 C239.50081976 18.90115805 242.07478096 21.48788515 244.64550805 24.0783453 C247.34773002 26.79704013 250.06262859 29.50302758 252.77563477 32.21095276 C257.32759703 36.75840408 261.86930131 41.31590715 266.40498352 45.8795929 C271.63740886 51.14407511 276.88569075 56.39232918 282.14277965 61.63217425 C287.21539678 66.68888933 292.27659845 71.75688457 297.33273888 76.8300705 C299.47769939 78.98187573 301.62651764 81.12971393 303.77860451 83.27439117 C306.31514532 85.80323128 308.84148261 88.3418555 311.36050606 90.88814163 C312.71997049 92.25769792 314.08918137 93.61755832 315.45872498 94.97703552 C321.66819984 101.28321115 326.56285214 106.9251794 326.59321594 116.13252258 C326.60582458 117.24016968 326.61843323 118.34781677 326.63142395 119.48902893 C326.61927856 121.24566864 326.61927856 121.24566864 326.60688782 123.03779602 C326.61071472 124.25996826 326.61454163 125.4821405 326.6184845 126.74134827 C326.62119664 129.31315438 326.61388468 131.88498841 326.59712219 134.45674133 C326.57563088 138.39844289 326.59698783 142.33833692 326.62251282 146.27998352 C326.61987087 148.78259171 326.61474864 151.28519878 326.60688782 153.78779602 C326.61498474 154.96698608 326.62308167 156.14617615 326.63142395 157.36109924 C326.61251099 159.00365692 326.61251099 159.00365692 326.59321594 160.67939758 C326.59003357 161.64121948 326.5868512 162.60304138 326.58357239 163.5940094 C325.93027386 166.8778511 324.64650275 168.07175858 322.07563782 170.14717102 C319.95674133 170.74067688 319.95674133 170.74067688 317.70454407 170.86201477 C316.88276672 170.90777649 316.06098938 170.95353821 315.21430969 171.00068665 C314.36417297 171.02840149 313.51403625 171.05611633 312.63813782 171.08467102 C311.36873352 171.16684875 311.36873352 171.16684875 310.07368469 171.25068665 C305.18979977 171.46868307 302.05942428 171.32311212 298.07563782 168.14717102 C296.5049025 166.5764357 296.91194475 164.99354884 296.87031555 162.81098938 C296.85037033 161.89011032 296.83042511 160.96923126 296.80987549 160.02044678 C296.78480675 158.51889793 296.78480675 158.51889793 296.75923157 156.98701477 C296.72805992 155.45761009 296.72805992 155.45761009 296.69625854 153.89730835 C296.6306493 150.62650054 296.57182548 147.35560965 296.51313782 144.08467102 C296.4699634 141.87307374 296.42634948 139.66148499 296.38227844 137.4499054 C296.27495642 132.01574951 296.17321158 126.5815102 296.07563782 121.14717102 C295.26877029 121.14352539 294.46190277 121.13987976 293.63058472 121.13612366 C285.99544335 121.09812535 278.36078357 121.04113977 270.7259531 120.96326828 C266.80156438 120.92389926 262.87739649 120.89165947 258.95283508 120.87617493 C255.15944544 120.8609379 251.36666331 120.82636983 247.57354546 120.778862 C246.13246402 120.76412025 244.69129582 120.75613417 243.25013924 120.75528717 C231.71883775 120.74170432 223.4636234 119.07234884 214.86470032 111.07295227 C208.80542853 104.5506357 205.81379785 97.44004383 205.84858704 88.4992218 C205.84881363 86.54787827 205.84881363 86.54787827 205.8490448 84.55711365 C205.8592558 83.15223535 205.86968775 81.74735865 205.88032532 80.34248352 C205.88405936 78.89374487 205.88690448 77.44500368 205.88890076 75.9962616 C205.89650646 72.19865342 205.9161283 68.40120025 205.93830872 64.60365295 C205.95883344 60.72234697 205.9679166 56.84101573 205.97798157 52.95967102 C205.99937737 45.35543399 206.03347591 37.75132429 206.07563782 30.14717102 C178.46874524 30.2076204 150.86194597 30.28505963 123.25515938 30.38288593 C110.43767746 30.42790662 97.62022372 30.4673067 84.8026886 30.49360657 C73.63467317 30.51653596 62.46674645 30.54987695 51.2988013 30.59587258 C45.38206519 30.61987325 39.46541731 30.63855706 33.54863358 30.64478493 C27.98530567 30.65080495 22.42220369 30.67069222 16.8589592 30.70144653 C14.81186742 30.71027648 12.76474617 30.71393919 10.71763611 30.71217918 C7.9329877 30.71054028 5.14903952 30.72710631 2.36448669 30.7484436 C1.13590366 30.74117224 1.13590366 30.74117224 -0.11749923 30.73375398 C-2.59078725 30.72967434 -2.59078725 30.72967434 -5.92436218 31.14717102 C-8.34994684 34.78554801 -8.17576211 36.46754352 -8.17883778 40.80173492 C-8.18204425 41.48471226 -8.18525073 42.1676896 -8.18855438 42.87136322 C-8.19690417 45.17672132 -8.19091287 47.48182297 -8.18505859 49.78718567 C-8.18807701 51.44993305 -8.19196492 53.11267905 -8.19665116 54.77542257 C-8.20697979 59.35771068 -8.20473703 63.93992097 -8.20047057 68.5222156 C-8.19801215 73.45888038 -8.20700641 78.39552599 -8.21450806 83.33218384 C-8.22728143 93.00830566 -8.2290455 102.68439976 -8.22670779 112.36052859 C-8.22492755 120.22180086 -8.22666794 128.08306468 -8.23093224 135.94433594 C-8.23152742 137.06153388 -8.23212261 138.17873182 -8.23273584 139.32978424 C-8.23394754 141.59907345 -8.23516167 143.86836266 -8.23637822 146.13765186 C-8.24726374 167.43627944 -8.24508637 188.73489121 -8.23899337 210.03351969 C-8.23382228 229.53759925 -8.24508292 249.0416289 -8.26409159 268.54569858 C-8.28344157 288.55268233 -8.29173105 308.55964243 -8.28796834 328.56663561 C-8.2860521 339.80701368 -8.2885849 351.04734926 -8.30268288 362.28771973 C-8.31456147 371.85571319 -8.31604127 381.42363799 -8.30389271 390.99163234 C-8.29797939 395.87701233 -8.29697188 400.76226651 -8.30889511 405.64763832 C-8.31967106 410.11467759 -8.31675047 414.58148473 -8.30263343 419.04851276 C-8.29996347 420.66959615 -8.30242422 422.29069725 -8.31036929 423.91176337 C-8.32038051 426.10566329 -8.31213619 428.29874135 -8.29909229 430.49260712 C-8.29914731 431.71406008 -8.29920232 432.93551305 -8.29925901 434.19397974 C-8.14443281 437.10053308 -8.14443281 437.10053308 -6.71453738 439.03983521 C-4.32615077 440.51720235 -2.7121925 440.52096274 0.09317112 440.51910782 C1.65735856 440.52899258 1.65735856 440.52899258 3.25314575 440.53907704 C4.9772455 440.52699244 4.9772455 440.52699244 6.73617554 440.5146637 C7.95422628 440.51793254 9.17227703 440.52120138 10.4272384 440.52456927 C13.8144553 440.53060651 17.20116216 440.52313276 20.58832753 440.51002693 C24.23865985 440.49915101 27.88896632 440.50553834 31.53930664 440.5098114 C38.69247416 440.5154521 45.84553472 440.50511633 52.998684 440.48952344 C61.32238915 440.4720111 69.64607338 440.47056476 77.96979409 440.46990785 C92.81702883 440.46821879 107.66421475 440.45239129 122.51142883 440.42842102 C136.93102931 440.40515789 151.35059881 440.39099584 165.7702179 440.3874054 C166.6584236 440.38718263 167.54662931 440.38695986 168.46175034 440.38673034 C170.25095794 440.38628775 172.04016554 440.38584573 173.82937315 440.38540427 C175.15315799 440.38507492 175.15315799 440.38507492 176.50368595 440.38473892 C177.38392679 440.38452294 178.26416763 440.38430695 179.17108244 440.38408442 C192.8957257 440.38038643 206.62036393 440.36902688 220.34500169 440.35660852 C225.32596208 440.35216854 230.30692199 440.34873223 235.28788359 440.3459864 C243.18718994 440.34155974 251.08647778 440.3338069 258.98577244 440.31921199 C262.59709457 440.31259151 266.20840031 440.30753691 269.81972885 440.30675125 C273.72719749 440.30582344 277.6346261 440.29715638 281.54208374 440.28761292 C282.69371429 440.2884794 283.84534484 440.28934588 285.03187329 440.29023862 C286.07205717 440.28639747 287.11224105 440.28255633 288.18394566 440.27859879 C289.08681326 440.27735229 289.98968087 440.27610579 290.91990811 440.27482152 C293.12574404 440.28610172 293.12574404 440.28610172 295.07563782 439.14717102 C296.00572672 436.35690432 296.26262551 434.3818756 296.39204407 431.47920227 C296.4339386 430.58652649 296.47583313 429.69385071 296.51899719 428.77412415 C296.5779718 427.38096985 296.5779718 427.38096985 296.63813782 425.95967102 C296.68132141 425.01929993 296.724505 424.07892883 296.76899719 423.11006165 C296.87502446 420.78924248 296.97708811 418.46831777 297.07563782 416.14717102 C302.00636921 416.5851443 304.13024785 417.63085117 307.45063782 421.27217102 C310.30869852 424.30344752 313.16079924 427.18615835 316.32563782 429.89717102 C316.97016907 430.45920227 317.61470032 431.02123352 318.27876282 431.60029602 C319.86418499 432.96513772 321.46853867 434.30792173 323.07563782 435.64717102 C325.07563782 438.14717102 325.07563782 438.14717102 325.63813782 441.39717102 C324.19648394 451.00819688 319.14156565 459.08029839 311.45063782 464.89717102 C302.9202721 471.12754052 292.56378196 471.58884151 282.37522888 471.53485107 C280.52504019 471.54292938 280.52504019 471.54292938 278.63747394 471.55117089 C275.24397729 471.56293172 271.85097675 471.56141286 268.4575007 471.55400407 C264.78595008 471.54924949 261.11445073 471.56180239 257.44291687 471.57202148 C250.26177188 471.58917028 243.08071453 471.59005765 235.89955439 471.58480858 C230.05943487 471.58075826 224.21934116 471.58222065 218.37922287 471.58755684 C217.54630756 471.58830526 216.71339225 471.58905368 215.85523709 471.58982478 C214.16287446 471.59135635 212.47051185 471.5928947 210.77814923 471.59443975 C194.9267202 471.60815066 179.07534059 471.60273707 163.2239127 471.59125454 C148.74185942 471.58132401 134.25993393 471.59426222 119.77790035 471.61818873 C104.88504263 471.64260742 89.99224436 471.65218078 75.09936702 471.64553601 C66.74723333 471.64204989 58.39519787 471.6442356 50.04307938 471.66178703 C42.93307392 471.67654372 35.8232359 471.67709938 28.71323361 471.65971612 C25.09026508 471.65123206 21.46759521 471.64899235 17.84464264 471.66436768 C13.90628206 471.68087376 9.96837704 471.66600289 6.03001404 471.64837646 C4.90031791 471.65798147 3.77062178 471.66758648 2.60669243 471.67748255 C-8.78901408 471.57306438 -19.04873697 469.03460718 -27.76420593 461.42451477 C-34.95369508 453.84499909 -38.16814917 445.26891678 -38.1844244 434.85376453 C-38.19013291 433.79856185 -38.19013291 433.79856185 -38.19595674 432.72204193 C-38.20624165 430.37098503 -38.20237214 428.02017096 -38.19851685 425.6690979 C-38.20297093 423.96393909 -38.20828554 422.25878234 -38.21438557 420.55362862 C-38.22855547 415.87234389 -38.23022905 411.19112559 -38.22978866 406.50982249 C-38.23143775 401.45921179 -38.24450597 396.40862838 -38.25598145 391.35803223 C-38.2788231 380.31667121 -38.2867511 369.27532943 -38.29180789 358.23394799 C-38.29506575 351.33827634 -38.30158875 344.44261026 -38.30880928 337.54694176 C-38.32837379 318.45039837 -38.34477898 299.35386016 -38.34768581 280.2573061 C-38.34787338 279.03547963 -38.34806095 277.81365317 -38.34825421 276.55480165 C-38.34862046 274.07792326 -38.34898415 271.60104486 -38.34934532 269.12416647 C-38.34952813 267.8946608 -38.34971094 266.66515514 -38.34989929 265.39839172 C-38.35007984 264.16738344 -38.35026039 262.93637516 -38.35044641 261.6680636 C-38.35398814 241.72086631 -38.38101114 221.77377696 -38.41839718 201.8266171 C-38.45648397 181.34146696 -38.47584332 160.85637038 -38.47614533 140.37118405 C-38.4767298 128.87176436 -38.48521524 117.37247346 -38.51414299 105.87308693 C-38.53866172 96.0814407 -38.54593633 86.28997024 -38.53089546 76.4983016 C-38.52372877 71.50435557 -38.52457388 66.5107566 -38.54730606 61.51684952 C-38.56793895 56.94019859 -38.56525551 52.36416062 -38.54443122 47.78751602 C-38.54094458 46.13677782 -38.54581118 44.485995 -38.56013566 42.83531526 C-38.66551037 29.84982265 -36.61587177 18.87160963 -27.31108093 9.12373352 C-19.01068867 2.24975891 -10.48730158 -0.00226459 0 0 Z " fill="#3A3951" transform="translate(60.92436218261719,11.852828979492188)"/>
<path d="M0 0 C20.55181398 17.30961125 33.22277005 41.63390244 35.83276367 68.42480469 C37.50006756 89.84803969 33.33882279 116.45569035 19.19140625 133.7265625 C17.81610858 135.42992198 17.81610858 135.42992198 18.01171875 137.44140625 C19.43238618 140.44623061 21.42690783 142.46529035 23.74609375 144.8359375 C24.6071875 145.73957031 25.46828125 146.64320313 26.35546875 147.57421875 C28.80189068 149.82275567 28.80189068 149.82275567 31.609375 149.33203125 C32.39699219 149.06519531 33.18460938 148.79835938 33.99609375 148.5234375 C39.29982562 148.13771155 42.50898873 148.62551551 46.99609375 151.5234375 C48.78862508 153.16729917 50.47353925 154.88082555 52.15234375 156.640625 C53.98115609 158.50818336 55.88321369 160.20242872 57.87109375 161.8984375 C60.88076905 164.48977955 63.70697991 167.19598533 66.49609375 170.0234375 C69.87850774 173.4522654 73.37679817 176.64392268 77.03125 179.77734375 C79.81033889 182.2470311 82.38469871 184.90247072 84.9921875 187.55078125 C87.57855526 190.09681579 90.31144655 192.44365307 93.0625 194.80859375 C94.95103972 196.48348049 96.72765023 198.22291337 98.49609375 200.0234375 C100.8263482 202.39567852 103.21713781 204.61457267 105.74609375 206.7734375 C109.2427314 209.79700064 112.58175214 212.9646783 115.87109375 216.2109375 C116.79664063 217.12230469 117.7221875 218.03367187 118.67578125 218.97265625 C121.9174685 222.53632927 123.28650128 225.07666643 123.37109375 229.8984375 C123.39945312 230.62804687 123.4278125 231.35765625 123.45703125 232.109375 C122.25861683 238.38581663 116.7295903 243.24234822 112.49609375 247.7734375 C111.92761719 248.39734375 111.35914063 249.02125 110.7734375 249.6640625 C109.94005859 250.56125 109.94005859 250.56125 109.08984375 251.4765625 C108.59162109 252.01442383 108.09339844 252.55228516 107.58007812 253.10644531 C104.346668 255.99897188 101.4033739 256.83173532 97.12109375 256.8984375 C96.29867188 256.92679687 95.47625 256.95515625 94.62890625 256.984375 C88.2800717 255.87285797 83.62577271 250.51351042 79.12109375 246.2109375 C77.78906517 244.95312218 76.45703383 243.69530977 75.125 242.4375 C74.44324707 241.79071289 73.76149414 241.14392578 73.05908203 240.47753906 C69.73899503 237.33268979 66.39738526 234.2108986 63.05859375 231.0859375 C61.71467656 229.8256991 60.37092727 228.56528163 59.02734375 227.3046875 C56.36148024 224.80382908 53.69483164 222.30381324 51.02734375 219.8046875 C47.70837197 216.69519315 44.39096897 213.58403173 41.07421875 210.47216797 C39.6451048 209.13203785 38.21538302 207.7925557 36.78515625 206.45361328 C31.84125359 201.82511964 26.91117362 197.18252362 21.99609375 192.5234375 C21.47273437 192.03020996 20.949375 191.53698242 20.41015625 191.02880859 C19.11793292 189.80664019 17.83761532 188.57191507 16.55859375 187.3359375 C15.89988281 186.70300781 15.24117187 186.07007813 14.5625 185.41796875 C12.70639343 183.17305183 11.77573603 181.33187268 10.99609375 178.5234375 C11.44140625 176.26953125 11.44140625 176.26953125 12.12109375 173.9609375 C12.54214893 171.08300366 12.55032003 169.32859775 10.87451172 166.89404297 C7.55830687 163.10393786 3.81925315 159.7908072 -0.00390625 156.5234375 C-2.67631523 158.11110483 -5.32371513 159.72618106 -7.94921875 161.390625 C-31.87489276 176.49848304 -59.61102073 183.21318023 -87.69140625 176.8984375 C-105.70484997 172.42095504 -121.10620074 163.82847032 -135.00390625 151.5234375 C-136.06544922 150.58757812 -136.06544922 150.58757812 -137.1484375 149.6328125 C-153.09566407 134.6606629 -164.83215714 110.54941072 -166.1809082 88.64941406 C-166.62116567 67.20133294 -164.69891158 49.7453874 -155.00390625 30.5234375 C-154.48054687 29.47671875 -153.9571875 28.43 -153.41796875 27.3515625 C-141.42639858 5.24027702 -119.95818733 -11.76932805 -95.95654297 -19.10205078 C-61.98603517 -28.70360637 -27.59218726 -22.38294363 0 0 Z M-116.00390625 21.5234375 C-116.66390625 22.09191406 -117.32390625 22.66039062 -118.00390625 23.24609375 C-132.66708142 36.73506935 -139.50540496 55.85261063 -141.25390625 75.3046875 C-141.78535195 95.76534688 -133.73687304 115.41255488 -120.0859375 130.4453125 C-105.7552368 145.29991135 -86.3703739 152.4842967 -66.06640625 153.7734375 C-45.0823964 153.41226693 -26.50546166 145.36323698 -11.19140625 131.2109375 C3.03547201 115.90353684 10.72356874 96.51327617 10.46630859 75.6730957 C9.79991064 58.10264064 3.85937942 41.68935846 -8.00390625 28.5234375 C-8.80570313 27.62882812 -9.6075 26.73421875 -10.43359375 25.8125 C-24.4636065 10.96915318 -42.36071725 2.88010951 -62.73266602 2.1887207 C-82.42492907 1.86608905 -101.24408251 8.16222609 -116.00390625 21.5234375 Z " fill="#437DB4" transform="translate(364.00390625,227.4765625)"/>
<path d="M0 0 C0.67861399 -0.00779995 1.35722797 -0.01559991 2.05640602 -0.02363622 C4.32380555 -0.04353461 6.58952249 -0.02780245 8.85693359 -0.01205444 C10.48501565 -0.01883161 12.11309003 -0.02773531 13.7411499 -0.03860474 C18.15859533 -0.06139316 22.57545669 -0.05256381 26.99291229 -0.03670931 C31.61638459 -0.02404788 36.23980698 -0.03579109 40.86328125 -0.04364014 C48.62753272 -0.052736 56.39154636 -0.04075048 64.15576172 -0.01693726 C73.13151674 0.01027396 82.10670389 0.00145975 91.08244514 -0.02606928 C98.78961611 -0.04876118 106.49661616 -0.05196006 114.20380974 -0.03887594 C118.80664249 -0.03108185 123.40920834 -0.03003861 128.01202393 -0.04655838 C132.33950626 -0.06100514 136.66625669 -0.05097818 140.99365997 -0.0220871 C142.58153315 -0.0154773 144.16946795 -0.01737223 145.75731659 -0.02840042 C147.92595565 -0.04207344 150.09225232 -0.02492451 152.26074219 0 C153.47378021 0.00188513 154.68681824 0.00377026 155.93661499 0.00571251 C160.03447181 0.81303617 161.52975673 2.4421209 164.13037109 5.63491821 C164.74560547 7.69961548 164.74560547 7.69961548 164.72412109 9.70132446 C164.72154297 10.43415649 164.71896484 11.16698853 164.71630859 11.92202759 C164.68794922 12.67290649 164.65958984 13.4237854 164.63037109 14.19741821 C164.63294922 14.95216431 164.63552734 15.7069104 164.63818359 16.48452759 C164.58065339 19.74936673 164.36167775 22.21063188 162.78662109 25.09976196 C159.4686922 28.17510643 155.87184475 27.7647153 151.57717896 27.77536011 C150.90844092 27.77833123 150.23970289 27.78130235 149.55070007 27.78436351 C147.30527181 27.79304934 145.05989686 27.79455865 142.81445312 27.79605103 C141.20637905 27.80067924 139.59830607 27.80570391 137.99023438 27.81109619 C133.61831532 27.82422088 129.24641163 27.83066515 124.87447596 27.83510685 C122.14384282 27.83803714 119.41321388 27.84214184 116.68258286 27.84661102 C108.1412092 27.86028542 99.59984515 27.86995266 91.05846131 27.87381291 C81.19447264 27.87829529 71.33062244 27.89585172 61.46667588 27.92481351 C53.84451676 27.9464174 46.22239663 27.95651648 38.60020721 27.95785403 C34.04656967 27.95890288 29.49306229 27.96482779 24.93945694 27.98267365 C20.65652399 27.99913227 16.37381936 28.00132064 12.09086609 27.99253464 C10.51910161 27.99176311 8.94732496 27.99612228 7.37559128 28.00599289 C5.22929826 28.01868117 3.08381777 28.01285338 0.93753052 28.00241089 C-0.26335646 28.00387745 -1.46424343 28.00534401 -2.70152092 28.00685501 C-6.1912996 27.59715398 -8.07553408 26.72949868 -10.86962891 24.63491821 C-12.49131984 21.39153635 -12.17918825 17.88298501 -12.24462891 14.32241821 C-12.30070312 13.1825647 -12.30070312 13.1825647 -12.35791016 12.01968384 C-12.3753125 10.90690063 -12.3753125 10.90690063 -12.39306641 9.77163696 C-12.41288574 9.09834351 -12.43270508 8.42505005 -12.453125 7.73135376 C-10.70599608 1.45411691 -5.88651713 0.00914797 0 0 Z " fill="#3C3B54" transform="translate(95.86962890625,156.36508178710938)"/>
<path d="M0 0 C1.30756256 -0.00073013 2.61512512 -0.00146027 3.96231079 -0.00221252 C7.54494816 -0.00364711 11.12674849 0.02574806 14.70919132 0.06065726 C18.45409463 0.09191444 22.19901714 0.09485097 25.94403076 0.1007843 C33.03435928 0.11632474 40.12430232 0.15735553 47.21446109 0.20753175 C55.28689713 0.2634193 63.35935158 0.29091017 71.43193293 0.31600893 C88.03655334 0.36827152 104.64078607 0.45621723 121.24511719 0.56762695 C118.72086172 3.09662974 116.19272101 5.61861337 113.63183594 8.1105957 C112.29572266 9.41963867 112.29572266 9.41963867 110.93261719 10.75512695 C109.54182619 12.10937161 108.15021409 13.46282393 106.74900818 14.80628967 C105.11627504 16.56505605 105.11627504 16.56505605 104.06947327 19.02903748 C102.14914144 22.51916959 100.55776316 24.29913218 97.24511719 26.56762695 C89.28306291 28.55330129 80.676602 27.82544359 72.54199219 27.68481445 C70.09679167 27.67630971 67.65157498 27.67165659 65.20635986 27.67068481 C60.09157714 27.65837233 54.97855265 27.61305981 49.86425781 27.54174805 C43.30443374 27.45101037 36.74619615 27.42168551 30.18580246 27.41427422 C25.14142173 27.40542484 20.09737475 27.37483459 15.05313873 27.33652115 C12.63380936 27.31875171 10.21444437 27.30529413 7.79506683 27.2961998 C4.41940675 27.2781427 1.04519151 27.23339637 -2.33007812 27.18041992 C-3.3317099 27.17909058 -4.33334167 27.17776123 -5.36532593 27.1763916 C-12.07838604 27.03073842 -12.07838604 27.03073842 -15.37322998 24.775177 C-17.49748769 21.38112237 -17.33428467 18.0042757 -17.25488281 14.13012695 C-17.27035156 13.37924805 -17.28582031 12.62836914 -17.30175781 11.85473633 C-17.29660156 11.1219043 -17.29144531 10.38907227 -17.28613281 9.6340332 C-17.28162109 8.97346924 -17.27710937 8.31290527 -17.27246094 7.63232422 C-15.00943439 -1.39523027 -7.70738138 -0.11185921 0 0 Z " fill="#393850" transform="translate(100.7548828125,207.432373046875)"/>
<path d="M0 0 C0.97938538 -0.02628479 1.95877075 -0.05256958 2.96783447 -0.07965088 C6.20952617 -0.15849779 9.45047725 -0.20521096 12.69287109 -0.24511719 C14.35662844 -0.26957035 14.35662844 -0.26957035 16.05399704 -0.29451752 C21.92691811 -0.37793131 27.79946646 -0.43514417 33.67285156 -0.47265625 C39.72782709 -0.5168798 45.7769051 -0.65439789 51.82979774 -0.81334305 C56.49521437 -0.91816371 61.15923516 -0.95143431 65.82572556 -0.96578217 C68.05631662 -0.98521537 70.28684827 -1.03159511 72.51628494 -1.10593414 C89.52514618 -1.63774427 89.52514618 -1.63774427 94.22057343 2.27336121 C97.41283395 6.0780934 99.44879775 10.26072747 101.40287399 14.79479218 C103.21866005 18.49669136 106.11804371 21.26203826 108.94287109 24.20410156 C110.34130859 25.70800781 110.34130859 25.70800781 110.34130859 26.70800781 C94.76438853 26.80143405 79.18751924 26.87197853 63.61038589 26.9152565 C56.37769456 26.93588504 49.14517728 26.96401092 41.91259766 27.00976562 C35.60893633 27.04962481 29.30540104 27.07543851 23.00161719 27.08436179 C19.66342217 27.08957833 16.32587321 27.10393742 12.98773956 27.13092804 C9.26195171 27.15986157 5.53691683 27.16396786 1.81103516 27.16210938 C0.14947388 27.18368103 0.14947388 27.18368103 -1.5456543 27.20568848 C-2.56085144 27.20018982 -3.57604858 27.19469116 -4.62200928 27.18902588 C-5.50324337 27.19271305 -6.38447746 27.19640022 -7.29241562 27.20019913 C-10.44234906 26.54500505 -11.64989192 25.16132045 -13.65869141 22.70800781 C-14.17626953 20.66503906 -14.17626953 20.66503906 -14.18994141 18.52050781 C-14.19767578 17.34875 -14.19767578 17.34875 -14.20556641 16.15332031 C-14.19009766 15.34636719 -14.17462891 14.53941406 -14.15869141 13.70800781 C-14.17416016 12.90105469 -14.18962891 12.09410156 -14.20556641 11.26269531 C-14.20041016 10.48152344 -14.19525391 9.70035156 -14.18994141 8.89550781 C-14.18542969 8.1878125 -14.18091797 7.48011719 -14.17626953 6.75097656 C-12.35816193 -0.42540287 -6.09895316 0.0710178 0 0 Z " fill="#383750" transform="translate(97.65869140625,362.2919921875)"/>
<path d="M0 0 C2.640625 2.23046875 2.640625 2.23046875 5.25 5.1875 C6.12140625 6.15042969 6.9928125 7.11335938 7.890625 8.10546875 C11.1058681 12.51749678 11.1058681 12.51749678 11 16 C9.19140625 18.4296875 9.19140625 18.4296875 6.5625 20.875 C5.17224609 22.18404297 5.17224609 22.18404297 3.75390625 23.51953125 C-2.06799112 28.76336788 -2.06799112 28.76336788 -4.9453125 31.23046875 C-7.28566803 33.24602209 -9.5813701 35.30644593 -11.875 37.375 C-12.71546875 38.13296875 -13.5559375 38.8909375 -14.421875 39.671875 C-15.27265625 40.44015625 -16.1234375 41.2084375 -17 42 C-22.27438344 46.76292807 -27.56004364 51.50751764 -32.921875 56.171875 C-36.21714019 59.07071731 -39.45849702 62.02907691 -42.703125 64.984375 C-43.46109375 65.64953125 -44.2190625 66.3146875 -45 67 C-45.65484375 67.60328125 -46.3096875 68.2065625 -46.984375 68.828125 C-49 70 -49 70 -51.3515625 70.06640625 C-55.20859183 68.51335462 -57.5440163 65.92127484 -60.375 62.9375 C-61.24088745 62.04732178 -61.24088745 62.04732178 -62.12426758 61.13916016 C-65.60688832 57.53522968 -69.00846585 53.87203304 -72.234375 50.03515625 C-73.65591009 48.39661691 -75.13928676 46.81183851 -76.640625 45.24609375 C-77.10251221 44.76092285 -77.56439941 44.27575195 -78.0402832 43.77587891 C-79.37208313 42.38101454 -80.71506676 40.99685376 -82.05859375 39.61328125 C-84 37 -84 37 -84.63671875 34.53515625 C-83.6804701 30.72776132 -81.20387219 28.65292834 -78.375 26.125 C-77.85292969 25.61453125 -77.33085937 25.1040625 -76.79296875 24.578125 C-74.20449736 22.21334867 -72.51879759 21.0376818 -68.98828125 20.78125 C-64.8644573 22.4631233 -62.65893492 25.0271019 -59.8125 28.375 C-58.77758862 29.54969495 -57.74243995 30.72418089 -56.70703125 31.8984375 C-56.2581958 32.42099121 -55.80936035 32.94354492 -55.34692383 33.48193359 C-53.9930805 35.05393159 -53.9930805 35.05393159 -52.33081055 36.56884766 C-51 38 -51 38 -51 40 C-43.09492421 33.78769512 -35.75591001 27.12045397 -28.4453125 20.23046875 C-25.33026116 17.29722649 -22.15535197 14.44888488 -18.91015625 11.66015625 C-15.58783508 8.7726583 -12.35162998 5.78864038 -9.1015625 2.8203125 C-6.00206779 0.13562006 -4.08894124 -0.58497859 0 0 Z " fill="#437DB3" transform="translate(337,272)"/>
<path d="M0 0 C0.93692688 -0.00073013 1.87385376 -0.00146027 2.83917236 -0.00221252 C5.93471253 0.00126974 9.02874629 0.04016182 12.12402344 0.0793457 C14.27064187 0.08867154 16.41727094 0.09578873 18.56390381 0.1007843 C24.21290486 0.11987201 29.86126277 0.16898882 35.51000977 0.2243042 C41.27448832 0.27545802 47.03907082 0.29829012 52.80371094 0.32348633 C64.11388929 0.37710524 75.42359038 0.46244007 86.73339844 0.56762695 C85.45497032 6.67858567 83.91023074 12.65370063 82.10839844 18.63012695 C81.87894531 19.4003418 81.64949219 20.17055664 81.41308594 20.96411133 C80.8559673 22.8327801 80.29508902 24.70032734 79.73339844 26.56762695 C68.05073605 26.66020779 56.36816058 26.7313314 44.68520641 26.77487564 C39.26062778 26.79577216 33.83629967 26.82412763 28.41186523 26.86938477 C23.17935529 26.91276864 17.94708667 26.93674849 12.71441078 26.94713593 C10.71564241 26.95454071 8.71688761 26.96900011 6.71822166 26.99054718 C3.92375264 27.01948203 1.13028748 27.02358712 -1.66430664 27.02172852 C-2.49508728 27.03610962 -3.32586792 27.05049072 -4.18182373 27.06530762 C-9.75062121 27.02509092 -9.75062121 27.02509092 -12.27714539 24.78509521 C-13.82611241 21.31370831 -13.73913055 17.85912142 -13.70410156 14.13012695 C-13.72408203 13.37924805 -13.7440625 12.62836914 -13.76464844 11.85473633 C-13.76400391 11.1219043 -13.76335937 10.38907227 -13.76269531 9.6340332 C-13.76454834 8.97346924 -13.76640137 8.31290527 -13.76831055 7.63232422 C-11.8882246 -0.10484698 -6.74423686 -0.13725615 0 0 Z " fill="#39384F" transform="translate(97.2666015625,257.432373046875)"/>
<path d="M0 0 C0.80848389 0.01797638 1.61696777 0.03595276 2.44995117 0.05447388 C3.30884949 0.05374374 4.1677478 0.05301361 5.05267334 0.05226135 C7.88854365 0.0557418 10.72276665 0.09462384 13.55834961 0.13381958 C15.52560529 0.14314609 17.49287259 0.15026297 19.46014404 0.15525818 C24.63570266 0.17434065 29.81055866 0.22345253 34.98583984 0.27877808 C40.26772557 0.32994343 45.54972494 0.35276644 50.83178711 0.37796021 C61.19407483 0.4315698 71.55584127 0.51689799 81.91772461 0.62210083 C82.0033667 1.23206909 82.08900879 1.84203735 82.17724609 2.4704895 C82.56841525 5.25040534 82.96179905 8.03000347 83.35522461 10.80960083 C83.48993164 11.76930786 83.62463867 12.72901489 83.76342773 13.71780396 C83.96162109 15.11482544 83.96162109 15.11482544 84.16381836 16.54006958 C84.28426514 17.39367065 84.40471191 18.24727173 84.52880859 19.1267395 C84.92094609 21.64277047 85.40037834 24.12907747 85.91772461 26.62210083 C73.84390858 26.7146772 61.77017662 26.78580303 49.6960783 26.82934952 C44.08990148 26.850247 38.48396701 26.87860428 32.87792969 26.92385864 C27.47035647 26.967239 22.06301673 26.99122165 16.65528297 27.0016098 C14.58952978 27.00901521 12.52378972 27.02347579 10.4581356 27.04502106 C7.57027694 27.07395108 4.68338981 27.07806118 1.79541016 27.07620239 C0.9365773 27.0905835 0.07774445 27.1049646 -0.80711365 27.11978149 C-6.56188861 27.07955531 -6.56188861 27.07955531 -9.11003113 24.83956909 C-10.63383752 21.36411294 -10.55476296 17.90918633 -10.51977539 14.18460083 C-10.53975586 13.43372192 -10.55973633 12.68284302 -10.58032227 11.90921021 C-10.57967773 11.17637817 -10.5790332 10.44354614 -10.57836914 9.68850708 C-10.58022217 9.02794312 -10.5820752 8.36737915 -10.58398438 7.6867981 C-9.14863129 1.77984868 -5.83933936 0.05380517 0 0 Z " fill="#39384F" transform="translate(94.082275390625,311.3778991699219)"/>
<path d="M0 0 C21.60916826 -0.02333342 43.21833445 -0.04098136 64.82751274 -0.05181217 C74.86043595 -0.05697418 84.89335134 -0.06401509 94.92626953 -0.07543945 C103.66829722 -0.08538917 112.41031926 -0.09185412 121.15235245 -0.09408849 C125.78358099 -0.09539511 130.41479333 -0.09847788 135.04601669 -0.10573006 C139.40106553 -0.1124948 143.75609143 -0.11461603 148.11114502 -0.11310768 C149.71318817 -0.1133838 151.31523204 -0.11538624 152.91727066 -0.11920547 C155.09737204 -0.1241498 157.27738579 -0.12299553 159.45748901 -0.12025452 C160.67978651 -0.12117631 161.90208401 -0.1220981 163.16142082 -0.12304783 C166 0 166 0 168 1 C168 1.66 168 2.32 168 3 C112.56 3 57.12 3 0 3 C0 2.01 0 1.02 0 0 Z " fill="#47435E" transform="translate(89,157)"/>
<path d="M0 0 C0.66 0 1.32 0 2 0 C2.33 6.27 2.66 12.54 3 19 C58.11 19.33 113.22 19.66 170 20 C170 20.33 170 20.66 170 21 C148.14751971 21.22384923 126.29493631 21.42481843 104.44199657 21.59840012 C94.29575183 21.67952951 84.14967684 21.76820207 74.00366211 21.87451172 C65.16246394 21.96713053 56.32127268 22.04571958 47.47980195 22.10732102 C42.79639433 22.14044561 38.11328776 22.18068983 33.43010521 22.2377243 C29.02499844 22.29115083 24.62014631 22.32586212 20.21476555 22.34602928 C18.59534335 22.35677699 16.97595053 22.3744472 15.35668564 22.39944649 C13.15034413 22.43248838 10.94524906 22.44092053 8.73869324 22.4430542 C6.88450665 22.45964647 6.88450665 22.45964647 4.99286175 22.47657394 C2 22 2 22 0.1011095 20.09723282 C-1.09689814 17.81544256 -1.36303045 16.48380943 -1.328125 13.92578125 C-1.32296875 13.17619141 -1.3178125 12.42660156 -1.3125 11.65429688 C-1.291875 10.88150391 -1.27125 10.10871094 -1.25 9.3125 C-1.24484375 8.52810547 -1.2396875 7.74371094 -1.234375 6.93554688 C-1.15442868 1.15442868 -1.15442868 1.15442868 0 0 Z " fill="#44425A" transform="translate(85,161)"/>
<path d="M0 0 C3.08012614 -0.28601949 5.95822922 -0.37789828 9.03955078 -0.34057617 C9.97618561 -0.34101425 10.91282043 -0.34145233 11.87783813 -0.34190369 C14.98387259 -0.33980819 18.08937196 -0.31644122 21.1953125 -0.29296875 C23.34479477 -0.28737551 25.49428086 -0.28310413 27.64376831 -0.28010559 C33.30904649 -0.26863547 38.97409498 -0.2391496 44.63928223 -0.20599365 C50.41704195 -0.17533946 56.19483869 -0.16161021 61.97265625 -0.14648438 C73.31520524 -0.11428202 84.65758354 -0.0630595 96 0 C95.67 1.32 95.34 2.64 95 4 C94.505 3.01 94.505 3.01 94 2 C62.32 2.33 30.64 2.66 -2 3 C-1.34 2.01 -0.68 1.02 0 0 Z " fill="#4A465A" transform="translate(88,258)"/>
<path d="M0 0 C2 2 2 2 3 19 C32.04 19.33 61.08 19.66 91 20 C91 20.33 91 20.66 91 21 C79.44798955 21.22315829 67.89582536 21.42468113 56.3429594 21.59840012 C50.97879108 21.67974443 45.6149648 21.76860677 40.2512207 21.87451172 C35.07726263 21.97639512 29.90333282 22.05871141 24.72883034 22.12732697 C22.75230953 22.15700233 20.7758826 22.19379081 18.7996273 22.2377243 C16.03649312 22.29794898 13.27410969 22.33312718 10.51049805 22.36230469 C9.2783532 22.39790245 9.2783532 22.39790245 8.02131653 22.43421936 C2.48253553 22.45566511 2.48253553 22.45566511 -0.0096283 20.10227966 C-1.07505539 17.84067859 -1.36206604 16.41313264 -1.328125 13.92578125 C-1.32296875 13.17619141 -1.3178125 12.42660156 -1.3125 11.65429688 C-1.291875 10.88150391 -1.27125 10.10871094 -1.25 9.3125 C-1.24484375 8.52810547 -1.2396875 7.74371094 -1.234375 6.93554688 C-1.15442868 1.15442868 -1.15442868 1.15442868 0 0 Z " fill="#454257" transform="translate(85,262)"/>
<path d="M0 0 C0.33 0 0.66 0 1 0 C1 6.27 1 12.54 1 19 C31.36 19.33 61.72 19.66 93 20 C93 20.33 93 20.66 93 21 C81.18721442 21.2231511 69.37427852 21.42467514 57.56065655 21.59840012 C52.07542562 21.67974691 46.59052907 21.7686111 41.10571289 21.87451172 C35.81504159 21.97638959 30.5243979 22.05870823 25.23319435 22.12732697 C23.21201883 22.157004 21.1909351 22.19379326 19.17001915 22.2377243 C16.34462094 22.29794223 13.51995679 22.33312531 10.6940918 22.36230469 C9.85396042 22.38603653 9.01382904 22.40976837 8.14823914 22.43421936 C2.48529226 22.45566655 2.48529226 22.45566655 -0.02110291 20.10227966 C-1.07303769 17.84314424 -1.36196588 16.40579274 -1.328125 13.92578125 C-1.32296875 13.17619141 -1.3178125 12.42660156 -1.3125 11.65429688 C-1.291875 10.88150391 -1.27125 10.10871094 -1.25 9.3125 C-1.24484375 8.52810547 -1.2396875 7.74371094 -1.234375 6.93554688 C-1.15442868 1.15442868 -1.15442868 1.15442868 0 0 Z " fill="#44435B" transform="translate(85,316)"/>
<path d="M0 0 C0.33 0.99 0.66 1.98 1 3 C0.34 3 -0.32 3 -1 3 C-1 9.6 -1 16.2 -1 23 C-0.34 23.33 0.32 23.66 1 24 C0.01 24.33 -0.98 24.66 -2 25 C-4.70236878 20.94644682 -4.36747676 17.82094744 -4.375 13.0625 C-4.39949219 12.25103516 -4.42398438 11.43957031 -4.44921875 10.60351562 C-4.47873304 4.60719615 -4.47873304 4.60719615 -1.9765625 1.43359375 C-1.32429688 0.96050781 -0.67203125 0.48742187 0 0 Z " fill="#48465B" transform="translate(88,363)"/>
<path d="M0 0 C0.66 0.33 1.32 0.66 2 1 C0.92492371 2.29854721 -0.16043736 3.58858361 -1.25 4.875 C-1.85328125 5.59429687 -2.4565625 6.31359375 -3.078125 7.0546875 C-4.97087634 8.97052118 -6.53657727 9.96449045 -9 11 C-8.06558465 9.72689688 -7.12732889 8.456612 -6.1875 7.1875 C-5.66542969 6.47980469 -5.14335937 5.77210938 -4.60546875 5.04296875 C-3.16871123 3.21468607 -1.68184237 1.60103312 0 0 Z " fill="#5180AA" transform="translate(228,232)"/>
<path d="M0 0 C5.61538462 1.46488294 5.61538462 1.46488294 7.4375 4 C8 6 8 6 7 8 C5.83035398 6.8572081 4.66435444 5.71068285 3.5 4.5625 C2.8503125 3.92441406 2.200625 3.28632813 1.53125 2.62890625 C0 1 0 1 0 0 Z " fill="#497CA8" transform="translate(401,433)"/>
<path d="M0 0 C-1.39332574 3.36720387 -2.9789286 4.9859524 -6 7 C-6.66 6.67 -7.32 6.34 -8 6 C-7.0479279 4.99403703 -6.08812654 3.99538437 -5.125 3 C-4.59132813 2.443125 -4.05765625 1.88625 -3.5078125 1.3125 C-2 0 -2 0 0 0 Z " fill="#527FAA" transform="translate(323,281)"/>
</svg>
