<?xml version="1.0" encoding="UTF-8"?>
<svg version="1.1" xmlns="http://www.w3.org/2000/svg" width="160" height="138">
<path d="M0 0 C1.0625 1.5 1.0625 1.5 2 4 C1.76925781 5.10730469 1.53851563 6.21460938 1.30078125 7.35546875 C0.43076126 13.58365093 2.97828108 19.06236003 5.125 24.8125 C5.7128125 26.50922852 5.7128125 26.50922852 6.3125 28.24023438 C6.90417969 29.86348633 6.90417969 29.86348633 7.5078125 31.51953125 C7.86504395 32.50026611 8.22227539 33.48100098 8.59033203 34.49145508 C10.28445035 37.50618762 12.01051286 38.3681852 15 40 C16 42.5 16 42.5 16 45 C13.51654919 48.50919867 9.54547604 49.54739237 5.6640625 50.953125 C4.94769623 51.21760437 4.23132996 51.48208374 3.49325562 51.75457764 C1.98014377 52.31007353 0.46541702 52.86118762 -1.05078125 53.40820312 C-3.36529125 54.24648364 -5.6708239 55.10668128 -7.9765625 55.96875 C-9.45002752 56.50656183 -10.92397124 57.04306428 -12.3984375 57.578125 C-13.08505463 57.83636047 -13.77167175 58.09459595 -14.47909546 58.36065674 C-18.32188654 59.72289807 -21.12288652 60.51280512 -25 59 C-27 56 -27 56 -26.34765625 52.5859375 C-25.39406156 46.44866387 -28.15072951 41.20889614 -30.4375 35.625 C-31.29273642 33.47229495 -32.14572191 31.31869382 -32.99609375 29.1640625 C-33.37950928 28.21998535 -33.7629248 27.2759082 -34.15795898 26.30322266 C-35 24 -35 24 -35 22 C-35.61875 21.896875 -36.2375 21.79375 -36.875 21.6875 C-39 21 -39 21 -41 18 C-41.1875 15.5625 -41.1875 15.5625 -40 13 C-33.36756524 9.12152765 -25.50622697 6.86203333 -18.3125 4.25 C-17.21099609 3.83878906 -16.10949219 3.42757812 -14.97460938 3.00390625 C-13.90662109 2.61589844 -12.83863281 2.22789063 -11.73828125 1.828125 C-10.77962158 1.4765332 -9.82096191 1.12494141 -8.83325195 0.76269531 C-5.77599577 -0.06030066 -3.15171386 -0.13633442 0 0 Z " fill="#080808" transform="translate(111,29)"/>
<path d="M0 0 C1.49821059 3.37097383 2 5.20442119 2 9 C-4.9914153 11.5301255 -11.98414328 14.05659667 -18.9777832 16.58056641 C-21.35536379 17.43910569 -23.73264586 18.29847215 -26.10961914 19.15869141 C-29.53192711 20.39705007 -32.95530776 21.63240184 -36.37890625 22.8671875 C-37.43646622 23.25059296 -38.49402618 23.63399841 -39.58363342 24.02902222 C-50.73650144 28.04449252 -50.73650144 28.04449252 -55 29 C-57.4375 27.625 -57.4375 27.625 -59 26 C-58.67 24.02 -58.34 22.04 -58 20 C-49.37453095 16.82764986 -40.74633535 13.6628495 -32.11523438 10.50585938 C-29.46751922 9.53738001 -26.82038134 8.567353 -24.17382812 7.59570312 C-20.72180325 6.32977478 -17.26752788 5.07020517 -13.8125 3.8125 C-12.76328369 3.42650635 -11.71406738 3.0405127 -10.63305664 2.64282227 C-9.66746826 2.29276123 -8.70187988 1.9427002 -7.70703125 1.58203125 C-6.8663208 1.27499268 -6.02561035 0.9679541 -5.15942383 0.65161133 C-3 0 -3 0 0 0 Z " fill="#161616" transform="translate(78,62)"/>
<path d="M0 0 C1.88700623 -0.00472824 1.88700623 -0.00472824 3.81213379 -0.009552 C5.19571975 -0.00776222 6.5793054 -0.00571127 7.96289062 -0.00341797 C9.37154151 -0.00409106 10.78019229 -0.00506112 12.18884277 -0.00631714 C15.14462385 -0.00779389 18.10037476 -0.0056403 21.05615234 -0.00097656 C24.85288647 0.00472073 28.64954991 0.0014416 32.44628143 -0.00454903 C35.35610491 -0.00815526 38.2659115 -0.00701577 41.17573547 -0.00442123 C42.57603463 -0.00375214 43.9763353 -0.00457979 45.37663269 -0.00690079 C47.33051526 -0.00942829 49.28440318 -0.0048958 51.23828125 0 C52.35223267 0.00079559 53.46618408 0.00159119 54.6138916 0.00241089 C57.11914062 0.12939453 57.11914062 0.12939453 58.11914062 1.12939453 C58.24414062 4.12939453 58.24414062 4.12939453 58.11914062 7.12939453 C56.32818018 8.92035498 53.65581277 8.25706244 51.23828125 8.25878906 C49.35127502 8.2635173 49.35127502 8.2635173 47.42614746 8.26834106 C46.0425615 8.26655128 44.65897585 8.26450033 43.27539062 8.26220703 C41.86673974 8.26288012 40.45808896 8.26385018 39.04943848 8.2651062 C36.0936574 8.26658295 33.13790649 8.26442936 30.18212891 8.25976562 C26.38539478 8.25406834 22.58873134 8.25734746 18.79199982 8.26333809 C15.88217634 8.26694432 12.97236975 8.26580483 10.06254578 8.2632103 C8.66224662 8.2625412 7.26194595 8.26336885 5.86164856 8.26568985 C3.90776599 8.26821736 1.95387807 8.26368486 0 8.25878906 C-1.11395142 8.25799347 -2.22790283 8.25719788 -3.37561035 8.25637817 C-5.88085938 8.12939453 -5.88085938 8.12939453 -6.88085938 7.12939453 C-7.00585938 4.12939453 -7.00585938 4.12939453 -6.88085938 1.12939453 C-5.08989893 -0.66156592 -2.41753152 0.00172662 0 0 Z " fill="#0D0D0D" transform="translate(81.880859375,110.87060546875)"/>
<path d="M0 0 C1.4616156 -0.00956978 1.4616156 -0.00956978 2.95275879 -0.01933289 C4.00797729 -0.02044571 5.0631958 -0.02155853 6.15039062 -0.02270508 C7.23042358 -0.02603348 8.31045654 -0.02936188 9.42321777 -0.03279114 C11.70971245 -0.03786008 13.99621455 -0.04019947 16.28271484 -0.04003906 C19.79211517 -0.04222727 23.30120215 -0.06038825 26.81054688 -0.0793457 C29.02799371 -0.0822792 31.24544205 -0.08426429 33.46289062 -0.08520508 C34.51810913 -0.09239059 35.57332764 -0.09957611 36.66052246 -0.10697937 C38.12213806 -0.10236443 38.12213806 -0.10236443 39.61328125 -0.09765625 C40.47328735 -0.09908127 41.33329346 -0.10050629 42.21936035 -0.10197449 C44.30664062 0.14526367 44.30664062 0.14526367 46.30664062 2.14526367 C46.49414062 4.70776367 46.49414062 4.70776367 46.30664062 7.14526367 C44.66576318 8.78614112 42.78833 8.27266122 40.52734375 8.2746582 C39.00071106 8.27938644 39.00071106 8.27938644 37.4432373 8.28421021 C36.3359729 8.28218597 35.2287085 8.28016174 34.08789062 8.27807617 C32.95967896 8.2790329 31.83146729 8.27998962 30.66906738 8.28097534 C28.27823837 8.28165735 25.88740751 8.27980164 23.49658203 8.27563477 C19.82254911 8.27028683 16.14863846 8.2755791 12.47460938 8.28198242 C10.15820285 8.28132164 7.84179641 8.28004049 5.52539062 8.27807617 C4.41812622 8.2801004 3.31086182 8.28212463 2.17004395 8.28421021 C1.15228882 8.28105804 0.13453369 8.27790588 -0.9140625 8.2746582 C-1.81483521 8.27386261 -2.71560791 8.27306702 -3.64367676 8.27224731 C-5.69335938 8.14526367 -5.69335938 8.14526367 -6.69335938 7.14526367 C-6.7341672 5.14568003 -6.73590294 3.14481113 -6.69335938 1.14526367 C-4.26830997 -0.06726103 -2.70953143 0.01200943 0 0 Z " fill="#0E0E0E" transform="translate(87.693359375,100.854736328125)"/>
</svg>
