<?xml version="1.0" encoding="UTF-8"?>
<svg version="1.1" xmlns="http://www.w3.org/2000/svg" width="360" height="360">
<path d="M0 0 C1.21236328 0.01353516 1.21236328 0.01353516 2.44921875 0.02734375 C3.37154297 0.04474609 3.37154297 0.04474609 4.3125 0.0625 C3.9825 2.7025 3.6525 5.3425 3.3125 8.0625 C2.24708984 8.24425781 2.24708984 8.24425781 1.16015625 8.4296875 C0.24105469 8.59726563 -0.67804688 8.76484375 -1.625 8.9375 C-2.99978516 9.18113281 -2.99978516 9.18113281 -4.40234375 9.4296875 C-5.15644531 9.63851562 -5.91054687 9.84734375 -6.6875 10.0625 C-8.21821511 13.12393022 -7.83549588 16.32633669 -7.83467102 19.68577576 C-7.84018605 20.87960305 -7.84018605 20.87960305 -7.8458125 22.09754807 C-7.85687426 24.7791498 -7.86069734 27.46071282 -7.86450195 30.14233398 C-7.87076458 32.05892053 -7.87741119 33.97550586 -7.88441467 35.89208984 C-7.90183974 41.10894438 -7.9123799 46.32578975 -7.9206202 51.5426662 C-7.9257657 54.79875585 -7.93184154 58.05484263 -7.93813133 61.31093025 C-7.95718506 71.48934872 -7.97141748 81.6677599 -7.9797433 91.84619278 C-7.98952639 103.613083 -8.01587309 115.37978564 -8.05624419 127.14660972 C-8.08634817 136.23112446 -8.10120661 145.31558525 -8.10452431 154.40014893 C-8.10688078 159.8312623 -8.11591872 165.26217532 -8.14098549 170.6932354 C-8.16417222 175.79941592 -8.16853753 180.90526283 -8.15822411 186.01148224 C-8.15772638 187.88886432 -8.16411593 189.76626232 -8.17778015 191.64359474 C-8.19535234 194.20021601 -8.18846644 196.75562069 -8.17524719 199.3122406 C-8.18621644 200.06087275 -8.19718568 200.80950491 -8.20848733 201.58082289 C-8.16889816 204.73656285 -8.09675044 206.58884928 -5.99385357 209.02266121 C-3.24892082 210.26023709 -1.30939943 210.44247602 1.7019043 210.45018005 C2.79546234 210.46008469 3.88902039 210.46998932 5.01571655 210.48019409 C6.21064728 210.47569244 7.405578 210.4711908 8.63671875 210.46655273 C9.89884186 210.47341599 11.16096497 210.48027924 12.46133423 210.48735046 C15.92000698 210.50529198 19.37842618 210.5041119 22.8371315 210.49840808 C25.7249252 210.49531806 28.61267006 210.50140648 31.50045681 210.50744683 C38.31252033 210.52149328 45.12445845 210.51992942 51.93652344 210.50854492 C58.96442783 210.49705927 65.99195082 210.51114628 73.01980495 210.5379414 C79.05474505 210.56008938 85.08956533 210.56673797 91.12454319 210.56086498 C94.72857866 210.5574925 98.33236955 210.55992961 101.93637085 210.57711601 C105.95392062 210.59543858 109.97072662 210.58140761 113.98828125 210.56420898 C115.18321198 210.57387695 116.3781427 210.58354492 117.60928345 210.59350586 C118.70284149 210.58367172 119.79639954 210.57383759 120.9230957 210.56370544 C121.87287796 210.56349616 122.82266022 210.56328688 123.80122375 210.56307125 C127.09396439 209.90673115 128.28152996 208.69246612 130.3125 206.0625 C130.73036702 203.25553997 130.91724313 200.82398059 130.921875 198.015625 C130.93841125 197.24442322 130.95494751 196.47322144 130.97198486 195.6786499 C131.02044593 193.22318546 131.04183037 190.76834016 131.0625 188.3125 C131.09066146 186.64450013 131.12058914 184.97652908 131.15234375 183.30859375 C131.22620372 179.2266135 131.27578936 175.14497655 131.3125 171.0625 C133.6225 171.0625 135.9325 171.0625 138.3125 171.0625 C138.41168586 176.36436559 138.48411755 181.66568618 138.53222656 186.96826172 C138.55229033 188.77044081 138.57954813 190.57255521 138.61425781 192.37451172 C138.66300829 194.97119136 138.68552082 197.56700729 138.703125 200.1640625 C138.72377014 200.9642984 138.74441528 201.7645343 138.76568604 202.58901978 C138.76778685 207.87600844 137.90613964 210.92973772 134.3125 215.0625 C130.62788861 217.70710798 128.0997636 218.43911316 123.58851624 218.45018005 C122.44598892 218.46008469 121.30346161 218.46998932 120.12631226 218.48019409 C118.88201447 218.47569244 117.63771667 218.4711908 116.35571289 218.46655273 C115.03813492 218.47341599 113.72055695 218.48027924 112.36305237 218.48735046 C108.7555519 218.50527566 105.14829475 218.50411475 101.54076314 218.49840808 C98.52635687 218.4953152 95.51199726 218.5014098 92.49759763 218.50744683 C85.38483346 218.52148841 78.2721894 218.51993393 71.15942383 218.50854492 C63.82764432 218.49706446 56.49623064 218.51113873 49.16449934 218.5379414 C42.86369379 218.56011075 36.56300297 218.566733 30.2621612 218.56086498 C26.50158486 218.55749707 22.74124299 218.55989919 18.98069954 218.57711601 C14.78645855 218.59548076 10.59292762 218.58138546 6.39868164 218.56420898 C4.5352713 218.57871094 4.5352713 218.57871094 2.63421631 218.59350586 C-3.74868872 218.5387012 -7.88104794 218.45467271 -12.6875 214.0625 C-16.72769915 209.465032 -16.8347856 205.23050151 -16.82794189 199.3391571 C-16.83091302 198.54453451 -16.83388414 197.74991192 -16.8369453 196.93120986 C-16.84563989 194.25971201 -16.84714118 191.58825894 -16.84863281 188.91674805 C-16.85326044 187.00488184 -16.85828502 185.09301655 -16.86367798 183.18115234 C-16.87680911 177.98068011 -16.8832483 172.78022079 -16.88768864 167.57973456 C-16.89061814 164.33182396 -16.89472271 161.0839169 -16.89919281 157.83600807 C-16.91286946 147.67734025 -16.92253536 137.51868052 -16.9263947 127.36000413 C-16.93087637 115.62714826 -16.94842865 103.89440883 -16.9773953 92.16158837 C-16.99899995 83.09653855 -17.00909833 74.03152152 -17.01043582 64.96644622 C-17.0114847 59.55038182 -17.01741011 54.13442685 -17.03525543 48.71838951 C-17.0517151 43.62371719 -17.05390182 38.52923683 -17.04511642 33.43454742 C-17.04434493 31.56488087 -17.04870354 29.69520409 -17.05857468 27.82556343 C-17.07126375 25.27241097 -17.06543407 22.71994146 -17.05499268 20.16679382 C-17.06304908 19.42758231 -17.07110548 18.6883708 -17.07940602 17.92675894 C-17.02803274 12.55264046 -15.85051891 8.4339348 -12.1875 4.41796875 C-8.00446779 1.16086815 -5.2558998 -0.07617246 0 0 Z " fill="#111111" transform="translate(102.6875,76.9375)"/>
<path d="M0 0 C0.98474808 -0.01283524 1.96949615 -0.02567047 2.98408508 -0.03889465 C4.0517662 -0.04628159 5.11944733 -0.05366852 6.21948242 -0.0612793 C7.31459641 -0.06935104 8.40971039 -0.07742279 9.53800964 -0.08573914 C11.85898247 -0.09958709 14.17997573 -0.11030605 16.50097656 -0.11816406 C20.050116 -0.13537759 23.59832433 -0.17925864 27.1472168 -0.22338867 C29.40046514 -0.23351529 31.65372142 -0.24203149 33.90698242 -0.2487793 C34.96859085 -0.26628738 36.03019928 -0.28379547 37.12397766 -0.30183411 C44.50125987 -0.28012556 44.50125987 -0.28012556 48.41430664 2.06982422 C51.26083185 5.31531419 51.49301932 7.98010093 52.26245117 12.17700195 C53.96014648 12.14219727 53.96014648 12.14219727 55.69213867 12.10668945 C57.17390292 12.08793294 58.65567429 12.06973262 60.13745117 12.05200195 C60.88381836 12.03524414 61.63018555 12.01848633 62.39916992 12.0012207 C64.35439578 11.98360606 66.30987139 12.07380006 68.26245117 12.17700195 C70.71829355 14.63284434 70.5479174 16.078547 70.5847168 19.44067383 C70.57988281 20.45484375 70.57988281 20.45484375 70.57495117 21.48950195 C70.59170898 22.80563477 70.6084668 24.12176758 70.62573242 25.4777832 C70.24658149 29.33859972 69.67872076 31.18257305 67.26245117 34.17700195 C63.49466234 36.82862781 59.32398083 36.4725952 54.90136719 36.4675293 C54.06025391 36.47424652 53.21914062 36.48096375 52.35253906 36.48788452 C49.57375167 36.5068732 46.79520564 36.51078898 44.01635742 36.51293945 C42.08349 36.51936615 40.15062355 36.52609442 38.21775818 36.53311157 C34.16679631 36.54508606 30.11591973 36.54879215 26.06494141 36.54760742 C20.87508007 36.54740408 15.68576539 36.57472112 10.49603367 36.60915184 C6.50430286 36.63139135 2.51270431 36.63544589 -1.47908211 36.63438797 C-3.39244536 36.6367478 -5.30581205 36.64559279 -7.2191143 36.6610527 C-9.89548921 36.68065561 -12.57067616 36.67489763 -15.24707031 36.6628418 C-16.03632401 36.67408081 -16.8255777 36.68531982 -17.63874817 36.69689941 C-21.36528496 36.65425748 -23.51630852 36.3183609 -26.68714905 34.29238892 C-30.74117299 30.10987316 -31.01341865 26.16145974 -30.98754883 20.48950195 C-30.99270508 19.35125977 -30.99786133 18.21301758 -31.00317383 17.0402832 C-30.73754883 14.17700195 -30.73754883 14.17700195 -28.73754883 12.17700195 C-25.82819303 12.03182452 -23.01760283 11.990694 -20.11254883 12.05200195 C-19.31075195 12.06102539 -18.50895508 12.07004883 -17.68286133 12.0793457 C-15.7009636 12.10293972 -13.71921902 12.13881131 -11.73754883 12.17700195 C-11.54999023 10.51797852 -11.54999023 10.51797852 -11.35864258 8.82543945 C-10.67045289 4.78286606 -9.8911967 3.66169421 -6.73754883 1.17700195 C-4.30870469 -0.03742011 -2.71466921 0.03076215 0 0 Z M-3.73754883 8.17700195 C-3.97118764 10.02592142 -4.15058518 11.88188227 -4.30004883 13.73950195 C-4.44442383 15.53387695 -4.58879883 17.32825195 -4.73754883 19.17700195 C-10.67754883 19.50700195 -16.61754883 19.83700195 -22.73754883 20.17700195 C-22.73754883 22.48700195 -22.73754883 24.79700195 -22.73754883 27.17700195 C-20.9717252 28.94282558 -18.63382884 28.29685756 -16.28237915 28.30142212 C-15.50051239 28.29782684 -14.71864563 28.29423157 -13.91308594 28.29052734 C-13.09363998 28.29067337 -12.27419403 28.2908194 -11.42991638 28.29096985 C-8.7082153 28.29027048 -5.98658178 28.28247697 -3.26489258 28.2746582 C-1.38302142 28.27279411 0.49885023 28.27137017 2.38072205 28.27037048 C7.34393646 28.26654462 12.30712181 28.25671376 17.27032471 28.2456665 C22.33084724 28.23545385 27.39137444 28.23087318 32.4519043 28.22583008 C42.38876606 28.21509155 52.3256062 28.19801431 62.26245117 28.17700195 C63.61684785 25.4682086 63.32746568 23.16766928 63.26245117 20.17700195 C61.43907227 20.08612305 61.43907227 20.08612305 59.57885742 19.9934082 C57.99420889 19.90901864 56.40957415 19.82436985 54.82495117 19.73950195 C53.62128906 19.68052734 53.62128906 19.68052734 52.39331055 19.62036133 C46.37573242 19.2902832 46.37573242 19.2902832 45.26245117 18.17700195 C44.98051158 15.89015857 44.81468113 13.60336923 44.64135742 11.3059082 C44.43468482 8.96772792 44.43468482 8.96772792 42.26245117 7.17700195 C40.24982157 6.8786662 40.24982157 6.8786662 37.92041016 6.93408203 C37.02285507 6.9310054 36.12529999 6.92792877 35.20054626 6.92475891 C33.7442556 6.93553719 33.7442556 6.93553719 32.25854492 6.9465332 C30.76811424 6.94722054 30.76811424 6.94722054 29.24757385 6.94792175 C27.14518033 6.95094586 25.04278908 6.95883686 22.94042969 6.97119141 C19.70979948 6.9894463 16.47945568 6.99170115 13.2487793 6.99145508 C11.21036534 6.99637015 9.17195334 7.00219842 7.13354492 7.0090332 C6.16066025 7.01014603 5.18777557 7.01125885 4.18540955 7.0124054 C2.84380516 7.02197517 2.84380516 7.02197517 1.47509766 7.03173828 C0.68393051 7.03555008 -0.10723663 7.03936188 -0.92237854 7.04328918 C-2.75811468 6.97981832 -2.75811468 6.97981832 -3.73754883 8.17700195 Z " fill="#131313" transform="translate(143.737548828125,64.822998046875)"/>
<path d="M0 0 C8.19271559 6.94515921 12.66741013 16.18206679 14.06640625 26.76953125 C14.54057084 36.2375275 11.65340672 46.25875281 5.5 53.53515625 C4.9225 54.14230469 4.345 54.74945313 3.75 55.375 C3.09 56.07496094 2.43 56.77492188 1.75 57.49609375 C-6.64219495 65.66349777 -15.44785318 68.03527404 -26.90234375 67.9140625 C-36.98600819 67.46389891 -45.01932434 63.59858548 -52.27734375 56.6171875 C-60.30738638 47.48997073 -62.75217665 38.17687144 -62.5625 26.16796875 C-61.68432206 15.50908396 -56.6583023 7.23457682 -48.875 0.125 C-34.20094878 -11.69130383 -14.91974268 -11.02279496 0 0 Z M-49.78515625 12.1484375 C-54.51303661 18.68200977 -55.75030765 26.68461579 -54.90625 34.59765625 C-52.89945669 44.04630809 -48.33771011 50.59887479 -40.453125 56.12109375 C-32.41345414 60.69686387 -24.16203125 61.50783826 -15.3125 59.3125 C-7.31544525 56.67962351 -1.4738558 51.67207452 2.77734375 44.46484375 C6.35266665 36.78292507 7.07695928 28.81854887 5.0625 20.5546875 C1.77461337 11.59519643 -3.75258233 5.64037044 -12.25 1.375 C-26.75949789 -4.37404633 -39.99969985 0.84411891 -49.78515625 12.1484375 Z " fill="#131313" transform="translate(260.25,173.625)"/>
<path d="M0 0 C0.75785797 -0.00335861 1.51571594 -0.00671722 2.29653931 -0.01017761 C4.8083865 -0.01969759 7.32016713 -0.02163112 9.83203125 -0.02270508 C11.57316109 -0.02591649 13.31429066 -0.02928047 15.05541992 -0.03279114 C18.70720038 -0.03878472 22.35895716 -0.04063076 26.01074219 -0.04003906 C30.69858424 -0.03993733 35.38627522 -0.05360039 40.07408142 -0.07081127 C43.67021386 -0.08190801 47.26630947 -0.083959 50.86245728 -0.08342934 C52.59128338 -0.08461256 54.32011035 -0.08905335 56.04891968 -0.0967617 C58.46240963 -0.1065166 60.87556765 -0.10370177 63.2890625 -0.09765625 C64.36759995 -0.10608551 64.36759995 -0.10608551 65.46792603 -0.11468506 C70.4162142 -0.08305338 70.4162142 -0.08305338 72.64453125 2.14526367 C72.83203125 4.70776367 72.83203125 4.70776367 72.64453125 7.14526367 C70.92993791 8.85985702 68.75264228 8.27737605 66.46542358 8.29190063 C65.35344101 8.29122086 65.35344101 8.29122086 64.21899414 8.29052734 C63.44177505 8.29388596 62.66455597 8.29724457 61.86378479 8.30070496 C59.28156966 8.31024328 56.69941917 8.3121595 54.1171875 8.31323242 C52.32978793 8.316443 50.54238863 8.31980691 48.75498962 8.32331848 C45.00307607 8.32931697 41.25118559 8.33115765 37.49926758 8.33056641 C32.68248302 8.33046474 27.86584573 8.3441182 23.04909611 8.36133862 C19.35602636 8.37243615 15.66299248 8.37448631 11.96990776 8.37395668 C10.19363332 8.37514015 8.41735805 8.37958232 6.64109993 8.38728905 C4.16044819 8.39704384 1.6801194 8.39422893 -0.80053711 8.38818359 C-1.53983459 8.3938031 -2.27913208 8.39942261 -3.04083252 8.4052124 C-8.12715311 8.37357931 -8.12715311 8.37357931 -10.35546875 6.14526367 C-10.10546875 3.58276367 -10.10546875 3.58276367 -9.35546875 1.14526367 C-6.3600788 -0.3524313 -3.28500099 -0.00207047 0 0 Z " fill="#1B1B1B" transform="translate(150.35546875,128.854736328125)"/>
<path d="M0 0 C5.76219112 -0.34573147 10.04096075 -0.34446833 15 3 C19.37116981 7.8437287 20.12479915 10.36528736 20.11352539 16.83642578 C20.11367142 17.53897491 20.11381744 18.24152405 20.1139679 18.96536255 C20.11327014 21.29204373 20.10548419 23.61864527 20.09765625 25.9453125 C20.09579158 27.55671139 20.09436791 29.16811084 20.09336853 30.7795105 C20.0895472 35.02428752 20.07972018 39.26903042 20.06866455 43.51379395 C20.05844218 47.84382668 20.05386914 52.17386493 20.04882812 56.50390625 C20.03809758 65.00261984 20.02102575 73.50130568 20 82 C17.69 82 15.38 82 13 82 C12.99120064 80.71666779 12.99120064 80.71666779 12.98222351 79.40740967 C12.92431631 71.34402408 12.85225104 63.28091607 12.76428509 55.21780014 C12.71956018 51.07246596 12.68030891 46.92723055 12.65356445 42.78173828 C12.62755236 38.78097651 12.58716527 34.78059434 12.53681374 30.78006744 C12.52013075 29.25390597 12.50862537 27.72767881 12.50238609 26.2014389 C12.49276017 24.06324991 12.46472142 21.92603519 12.43237305 19.78808594 C12.42126999 18.5711908 12.41016693 17.35429565 12.39872742 16.1005249 C11.96955038 12.76322221 11.35859119 11.35785551 9 9 C6.73699105 8.3078631 6.73699105 8.3078631 4.3125 8.25 C3.50425781 8.19328125 2.69601563 8.1365625 1.86328125 8.078125 C1.24839844 8.05234375 0.63351563 8.0265625 0 8 C0 5.36 0 2.72 0 0 Z " fill="#0A0A0A" transform="translate(221,77)"/>
<path d="M0 0 C1.25212784 -0.01929062 2.50425568 -0.03858124 3.79432678 -0.05845642 C5.16943322 -0.07326914 6.5445512 -0.0870417 7.91967773 -0.09985352 C8.61269423 -0.10642534 9.30571072 -0.11299717 10.01972771 -0.11976814 C13.69346957 -0.15237776 17.36718241 -0.17681564 21.04101562 -0.19628906 C24.07042213 -0.21404567 27.09888777 -0.24876876 30.12792969 -0.29882812 C33.79378516 -0.35933574 37.45877389 -0.38980694 41.1251049 -0.39946175 C42.51610331 -0.40797234 43.90708134 -0.42668134 45.29779243 -0.45620537 C54.23998554 -0.63570329 60.26990294 0.08663789 67.04077148 6.20874023 C68.03077148 7.19874023 68.03077148 7.19874023 69.04077148 8.20874023 C59.1661636 8.25501615 49.29158138 8.29058522 39.41688728 8.31236458 C34.83200382 8.3228159 30.24719437 8.33699959 25.66235352 8.35961914 C21.24034774 8.38129959 16.8184133 8.39329869 12.39635849 8.39849472 C10.70660148 8.40219913 9.0168485 8.4094326 7.32712173 8.42020035 C4.96612259 8.43465166 2.60542079 8.43672087 0.24438477 8.43579102 C-0.45908081 8.44298157 -1.16254639 8.45017212 -1.8873291 8.45758057 C-6.73112419 8.43684456 -6.73112419 8.43684456 -8.95922852 6.20874023 C-8.70922852 3.64624023 -8.70922852 3.64624023 -7.95922852 1.20874023 C-5.23781338 -0.15196733 -3.04663296 0.04375946 0 0 Z " fill="#1B1B1B" transform="translate(148.959228515625,236.791259765625)"/>
<path d="M0 0 C0.99530228 -0.00021904 0.99530228 -0.00021904 2.01071167 -0.0004425 C4.20753225 0.00025508 6.40426842 0.00804025 8.60107422 0.01586914 C10.12279209 0.01773387 11.64451056 0.01915751 13.16622925 0.02015686 C17.17427219 0.02397773 21.18227898 0.03380435 25.19030762 0.04486084 C29.27904776 0.05508421 33.36779373 0.05965647 37.45654297 0.06469727 C45.48129915 0.07542699 53.50602594 0.09249826 61.53076172 0.11352539 C61.53076172 2.11352539 61.53076172 2.11352539 60.27487183 3.5982666 C53.79991628 9.14850084 47.72277858 8.92803693 39.47607422 8.76977539 C38.12467289 8.76364937 36.77325888 8.75990538 35.42184448 8.75842285 C32.60576167 8.74926731 29.79083911 8.72060488 26.97509766 8.67602539 C23.36348715 8.61913513 19.75278042 8.59756495 16.14076424 8.58866119 C13.35778773 8.58036159 10.57499389 8.56073967 7.79211044 8.53691101 C5.81228427 8.51997818 3.83242577 8.50697454 1.85256958 8.49401855 C0.65727631 8.47480347 -0.53801697 8.45558838 -1.76953125 8.43579102 C-2.82461884 8.42213501 -3.87970642 8.408479 -4.96676636 8.39440918 C-7.46923828 8.11352539 -7.46923828 8.11352539 -9.46923828 6.11352539 C-9.21923828 3.55102539 -9.21923828 3.55102539 -8.46923828 1.11352539 C-5.61353129 -0.31432811 -3.19209472 -0.00588947 0 0 Z " fill="#1C1C1C" transform="translate(149.46923828125,164.886474609375)"/>
<path d="M0 0 C1.46566406 -0.00386719 1.46566406 -0.00386719 2.9609375 -0.0078125 C3.98445313 -0.00007812 5.00796875 0.00765625 6.0625 0.015625 C7.08601563 0.00789062 8.10953125 0.00015625 9.1640625 -0.0078125 C10.14117187 -0.00523437 11.11828125 -0.00265625 12.125 0 C13.02347656 0.00225586 13.92195313 0.00451172 14.84765625 0.00683594 C17.0625 0.265625 17.0625 0.265625 19.0625 2.265625 C19.32128906 4.38867188 19.32128906 4.38867188 19.328125 6.984375 C19.33199219 8.38236328 19.33199219 8.38236328 19.3359375 9.80859375 C19.32820313 10.78441406 19.32046875 11.76023438 19.3125 12.765625 C19.32023437 13.74144531 19.32796875 14.71726563 19.3359375 15.72265625 C19.33335937 16.65464844 19.33078125 17.58664063 19.328125 18.546875 C19.32586914 19.40345703 19.32361328 20.26003906 19.32128906 21.14257812 C19.0625 23.265625 19.0625 23.265625 17.0625 25.265625 C14.84765625 25.52441406 14.84765625 25.52441406 12.125 25.53125 C11.14789063 25.53382813 10.17078125 25.53640625 9.1640625 25.5390625 C8.14054687 25.53132813 7.11703125 25.52359375 6.0625 25.515625 C5.03898437 25.52335937 4.01546875 25.53109375 2.9609375 25.5390625 C1.98382813 25.53648437 1.00671875 25.53390625 0 25.53125 C-0.89847656 25.52899414 -1.79695313 25.52673828 -2.72265625 25.52441406 C-4.9375 25.265625 -4.9375 25.265625 -6.9375 23.265625 C-7.19628906 21.14257812 -7.19628906 21.14257812 -7.203125 18.546875 C-7.20570312 17.61488281 -7.20828125 16.68289062 -7.2109375 15.72265625 C-7.20320313 14.74683594 -7.19546875 13.77101562 -7.1875 12.765625 C-7.19523437 11.78980469 -7.20296875 10.81398437 -7.2109375 9.80859375 C-7.20835938 8.87660156 -7.20578125 7.94460937 -7.203125 6.984375 C-7.20086914 6.12779297 -7.19861328 5.27121094 -7.19628906 4.38867188 C-6.64547682 -0.13006701 -3.86120914 0.00969457 0 0 Z M1.0625 7.265625 C1.0625 10.895625 1.0625 14.525625 1.0625 18.265625 C4.3625 18.265625 7.6625 18.265625 11.0625 18.265625 C11.0625 14.635625 11.0625 11.005625 11.0625 7.265625 C7.7625 7.265625 4.4625 7.265625 1.0625 7.265625 Z " fill="#0F0F0F" transform="translate(110.9375,235.734375)"/>
<path d="M0 0 C1.46566406 -0.00386719 1.46566406 -0.00386719 2.9609375 -0.0078125 C3.98445313 -0.00007812 5.00796875 0.00765625 6.0625 0.015625 C7.08601563 0.00789062 8.10953125 0.00015625 9.1640625 -0.0078125 C10.14117187 -0.00523437 11.11828125 -0.00265625 12.125 0 C13.02347656 0.00225586 13.92195313 0.00451172 14.84765625 0.00683594 C17.0625 0.265625 17.0625 0.265625 19.0625 2.265625 C19.32128906 4.38867188 19.32128906 4.38867188 19.328125 6.984375 C19.33199219 8.38236328 19.33199219 8.38236328 19.3359375 9.80859375 C19.32820313 10.78441406 19.32046875 11.76023438 19.3125 12.765625 C19.32023437 13.74144531 19.32796875 14.71726563 19.3359375 15.72265625 C19.33335937 16.65464844 19.33078125 17.58664063 19.328125 18.546875 C19.32586914 19.40345703 19.32361328 20.26003906 19.32128906 21.14257812 C19.0625 23.265625 19.0625 23.265625 17.0625 25.265625 C14.84765625 25.52441406 14.84765625 25.52441406 12.125 25.53125 C11.14789063 25.53382813 10.17078125 25.53640625 9.1640625 25.5390625 C8.14054687 25.53132813 7.11703125 25.52359375 6.0625 25.515625 C5.03898437 25.52335937 4.01546875 25.53109375 2.9609375 25.5390625 C1.98382813 25.53648437 1.00671875 25.53390625 0 25.53125 C-0.89847656 25.52899414 -1.79695313 25.52673828 -2.72265625 25.52441406 C-4.9375 25.265625 -4.9375 25.265625 -6.9375 23.265625 C-7.19628906 21.14257812 -7.19628906 21.14257812 -7.203125 18.546875 C-7.20570312 17.61488281 -7.20828125 16.68289062 -7.2109375 15.72265625 C-7.20320313 14.74683594 -7.19546875 13.77101562 -7.1875 12.765625 C-7.19523437 11.78980469 -7.20296875 10.81398437 -7.2109375 9.80859375 C-7.20835938 8.87660156 -7.20578125 7.94460937 -7.203125 6.984375 C-7.20086914 6.12779297 -7.19861328 5.27121094 -7.19628906 4.38867188 C-6.64547682 -0.13006701 -3.86120914 0.00969457 0 0 Z M1.0625 7.265625 C1.0625 10.895625 1.0625 14.525625 1.0625 18.265625 C4.3625 18.265625 7.6625 18.265625 11.0625 18.265625 C11.0625 14.635625 11.0625 11.005625 11.0625 7.265625 C7.7625 7.265625 4.4625 7.265625 1.0625 7.265625 Z " fill="#0F0F0F" transform="translate(110.9375,199.734375)"/>
<path d="M0 0 C1.46566406 -0.00386719 1.46566406 -0.00386719 2.9609375 -0.0078125 C3.98445313 -0.00007812 5.00796875 0.00765625 6.0625 0.015625 C7.08601563 0.00789062 8.10953125 0.00015625 9.1640625 -0.0078125 C10.14117187 -0.00523437 11.11828125 -0.00265625 12.125 0 C13.02347656 0.00225586 13.92195313 0.00451172 14.84765625 0.00683594 C17.0625 0.265625 17.0625 0.265625 19.0625 2.265625 C19.32128906 4.38867188 19.32128906 4.38867188 19.328125 6.984375 C19.33199219 8.38236328 19.33199219 8.38236328 19.3359375 9.80859375 C19.32820313 10.78441406 19.32046875 11.76023438 19.3125 12.765625 C19.32023437 13.74144531 19.32796875 14.71726563 19.3359375 15.72265625 C19.33335937 16.65464844 19.33078125 17.58664063 19.328125 18.546875 C19.32586914 19.40345703 19.32361328 20.26003906 19.32128906 21.14257812 C19.0625 23.265625 19.0625 23.265625 17.0625 25.265625 C14.84765625 25.52441406 14.84765625 25.52441406 12.125 25.53125 C11.14789063 25.53382813 10.17078125 25.53640625 9.1640625 25.5390625 C8.14054687 25.53132813 7.11703125 25.52359375 6.0625 25.515625 C5.03898437 25.52335937 4.01546875 25.53109375 2.9609375 25.5390625 C1.98382813 25.53648437 1.00671875 25.53390625 0 25.53125 C-0.89847656 25.52899414 -1.79695313 25.52673828 -2.72265625 25.52441406 C-4.9375 25.265625 -4.9375 25.265625 -6.9375 23.265625 C-7.19628906 21.14257812 -7.19628906 21.14257812 -7.203125 18.546875 C-7.20570312 17.61488281 -7.20828125 16.68289062 -7.2109375 15.72265625 C-7.20320313 14.74683594 -7.19546875 13.77101562 -7.1875 12.765625 C-7.19523437 11.78980469 -7.20296875 10.81398437 -7.2109375 9.80859375 C-7.20835938 8.87660156 -7.20578125 7.94460937 -7.203125 6.984375 C-7.20086914 6.12779297 -7.19861328 5.27121094 -7.19628906 4.38867188 C-6.64547682 -0.13006701 -3.86120914 0.00969457 0 0 Z M1.0625 7.265625 C1.0625 10.895625 1.0625 14.525625 1.0625 18.265625 C4.3625 18.265625 7.6625 18.265625 11.0625 18.265625 C11.0625 14.635625 11.0625 11.005625 11.0625 7.265625 C7.7625 7.265625 4.4625 7.265625 1.0625 7.265625 Z " fill="#0F0F0F" transform="translate(110.9375,163.734375)"/>
<path d="M0 0 C1.46566406 -0.00386719 1.46566406 -0.00386719 2.9609375 -0.0078125 C3.98445313 -0.00007813 5.00796875 0.00765625 6.0625 0.015625 C7.08601563 0.00789063 8.10953125 0.00015625 9.1640625 -0.0078125 C10.14117187 -0.00523438 11.11828125 -0.00265625 12.125 0 C13.02347656 0.00225586 13.92195313 0.00451172 14.84765625 0.00683594 C17.0625 0.265625 17.0625 0.265625 19.0625 2.265625 C19.32128906 4.38867188 19.32128906 4.38867188 19.328125 6.984375 C19.33199219 8.38236328 19.33199219 8.38236328 19.3359375 9.80859375 C19.32820313 10.78441406 19.32046875 11.76023438 19.3125 12.765625 C19.32023437 13.74144531 19.32796875 14.71726563 19.3359375 15.72265625 C19.33335937 16.65464844 19.33078125 17.58664063 19.328125 18.546875 C19.32586914 19.40345703 19.32361328 20.26003906 19.32128906 21.14257812 C19.0625 23.265625 19.0625 23.265625 17.0625 25.265625 C14.84765625 25.52441406 14.84765625 25.52441406 12.125 25.53125 C11.14789063 25.53382813 10.17078125 25.53640625 9.1640625 25.5390625 C8.14054687 25.53132813 7.11703125 25.52359375 6.0625 25.515625 C5.03898437 25.52335937 4.01546875 25.53109375 2.9609375 25.5390625 C1.98382813 25.53648437 1.00671875 25.53390625 0 25.53125 C-0.89847656 25.52899414 -1.79695313 25.52673828 -2.72265625 25.52441406 C-4.9375 25.265625 -4.9375 25.265625 -6.9375 23.265625 C-7.19628906 21.14257812 -7.19628906 21.14257812 -7.203125 18.546875 C-7.20570312 17.61488281 -7.20828125 16.68289062 -7.2109375 15.72265625 C-7.20320313 14.74683594 -7.19546875 13.77101562 -7.1875 12.765625 C-7.19523437 11.78980469 -7.20296875 10.81398437 -7.2109375 9.80859375 C-7.20835938 8.87660156 -7.20578125 7.94460937 -7.203125 6.984375 C-7.20086914 6.12779297 -7.19861328 5.27121094 -7.19628906 4.38867188 C-6.64547682 -0.13006701 -3.86120914 0.00969457 0 0 Z M1.0625 7.265625 C1.0625 10.895625 1.0625 14.525625 1.0625 18.265625 C4.3625 18.265625 7.6625 18.265625 11.0625 18.265625 C11.0625 14.635625 11.0625 11.005625 11.0625 7.265625 C7.7625 7.265625 4.4625 7.265625 1.0625 7.265625 Z " fill="#0F0F0F" transform="translate(110.9375,127.734375)"/>
<path d="M0 0 C0.96084503 0.00007553 1.92169006 0.00015106 2.91165161 0.00022888 C3.95127045 0.00539017 4.99088928 0.01055145 6.06201172 0.01586914 C7.12459198 0.01728409 8.18717224 0.01869904 9.2819519 0.02015686 C12.68522931 0.02576705 16.0884416 0.0383213 19.49169922 0.05102539 C21.79508369 0.05603908 24.09846918 0.06060221 26.40185547 0.06469727 C32.05682571 0.0757398 37.71175781 0.09248788 43.36669922 0.11352539 C43.36669922 2.75352539 43.36669922 5.39352539 43.36669922 8.11352539 C36.424999 8.16411268 29.48334606 8.19921118 22.54150391 8.22338867 C20.17853011 8.23346463 17.81556883 8.24712568 15.45263672 8.2644043 C12.06198034 8.28858264 8.67148837 8.29999238 5.28076172 8.30883789 C4.2192691 8.31916046 3.15777649 8.32948303 2.06411743 8.34011841 C1.08325165 8.34026947 0.10238586 8.34042053 -0.90820312 8.34057617 C-2.20726089 8.34723801 -2.20726089 8.34723801 -3.53256226 8.35403442 C-5.63330078 8.11352539 -5.63330078 8.11352539 -7.63330078 6.11352539 C-7.38330078 3.55102539 -7.38330078 3.55102539 -6.63330078 1.11352539 C-4.21555497 -0.09534751 -2.69999014 -0.00706804 0 0 Z " fill="#1C1C1C" transform="translate(147.63330078125,200.886474609375)"/>
<path d="M0 0 C0.495 2.475 0.495 2.475 1 5 C-1.35375841 6.72972465 -3.70799515 8.45879191 -6.0625 10.1875 C-7.04766602 10.91163086 -7.04766602 10.91163086 -8.05273438 11.65039062 C-9.37756941 12.62280649 -10.70523073 13.59138314 -12.03564453 14.55615234 C-13.33321887 15.50990012 -14.61606179 16.48405996 -15.88232422 17.47900391 C-18.40880968 19.42061038 -20.51328091 20.88696021 -23.640625 21.61328125 C-27.08021905 20.71921459 -28.46698578 18.86506198 -30.75 16.1875 C-31.52859375 15.29417969 -32.3071875 14.40085938 -33.109375 13.48046875 C-35 11 -35 11 -36 8 C-35.34 7.01 -34.68 6.02 -34 5 C-29.16743695 5.41421969 -27.17320782 7.46413986 -24 11 C-19.6086637 9.49228041 -16.05479866 7.1202577 -12.3125 4.4375 C-4.25547124 -1.27664137 -4.25547124 -1.27664137 0 0 Z " fill="#141414" transform="translate(255,195)"/>
<path d="M0 0 C0.87760986 -0.00315216 1.75521973 -0.00630432 2.65942383 -0.009552 C3.61357178 -0.00752777 4.56771973 -0.00550354 5.55078125 -0.00341797 C6.52362061 -0.00437469 7.49645996 -0.00533142 8.4987793 -0.00631714 C10.56005925 -0.00699905 12.62134133 -0.00514399 14.68261719 -0.00097656 C17.84965813 0.00437153 21.01655725 -0.00092119 24.18359375 -0.00732422 C26.1809899 -0.00666344 28.17838596 -0.00538228 30.17578125 -0.00341797 C31.1299292 -0.0054422 32.08407715 -0.00746643 33.06713867 -0.009552 C34.38355347 -0.00482376 34.38355347 -0.00482376 35.7265625 0 C36.50298096 0.00079559 37.27939941 0.00159119 38.0793457 0.00241089 C39.86328125 0.12939453 39.86328125 0.12939453 40.86328125 1.12939453 C40.98828125 3.62939453 40.98828125 3.62939453 40.86328125 6.12939453 C39.3217157 7.67096008 37.88882361 7.26407947 35.74243164 7.2746582 C34.43085838 7.28422798 34.43085838 7.28422798 33.0927887 7.29399109 C31.66627235 7.29566032 31.66627235 7.29566032 30.2109375 7.29736328 C28.75523598 7.30235588 28.75523598 7.30235588 27.27012634 7.30744934 C25.21304805 7.31252283 23.1559615 7.31485754 21.09887695 7.31469727 C17.94273381 7.31688279 14.78694054 7.33503145 11.63085938 7.35400391 C9.63671995 7.35693786 7.64257886 7.35892264 5.6484375 7.35986328 C4.2249575 7.37064156 4.2249575 7.37064156 2.77272034 7.38163757 C1.895186 7.37856094 1.01765167 7.37548431 0.11352539 7.37231445 C-0.66067245 7.37373947 -1.4348703 7.37516449 -2.23252869 7.37663269 C-4.13671875 7.12939453 -4.13671875 7.12939453 -6.13671875 5.12939453 C-5.43811742 0.51862574 -4.48909072 0.00459996 0 0 Z " fill="#060606" transform="translate(146.13671875,251.87060546875)"/>
<path d="M0 0 C0.87760986 -0.00315216 1.75521973 -0.00630432 2.65942383 -0.009552 C3.61357178 -0.00752777 4.56771973 -0.00550354 5.55078125 -0.00341797 C6.52362061 -0.00437469 7.49645996 -0.00533142 8.4987793 -0.00631714 C10.56005925 -0.00699905 12.62134133 -0.00514399 14.68261719 -0.00097656 C17.84965813 0.00437153 21.01655725 -0.00092119 24.18359375 -0.00732422 C26.1809899 -0.00666344 28.17838596 -0.00538228 30.17578125 -0.00341797 C31.1299292 -0.0054422 32.08407715 -0.00746643 33.06713867 -0.009552 C34.38355347 -0.00482376 34.38355347 -0.00482376 35.7265625 0 C36.50298096 0.00079559 37.27939941 0.00159119 38.0793457 0.00241089 C39.86328125 0.12939453 39.86328125 0.12939453 40.86328125 1.12939453 C40.98828125 3.62939453 40.98828125 3.62939453 40.86328125 6.12939453 C39.3217157 7.67096008 37.88882361 7.26407947 35.74243164 7.2746582 C34.43085838 7.28422798 34.43085838 7.28422798 33.0927887 7.29399109 C31.66627235 7.29566032 31.66627235 7.29566032 30.2109375 7.29736328 C28.75523598 7.30235588 28.75523598 7.30235588 27.27012634 7.30744934 C25.21304805 7.31252283 23.1559615 7.31485754 21.09887695 7.31469727 C17.94273381 7.31688279 14.78694054 7.33503145 11.63085938 7.35400391 C9.63671995 7.35693786 7.64257886 7.35892264 5.6484375 7.35986328 C4.2249575 7.37064156 4.2249575 7.37064156 2.77272034 7.38163757 C1.895186 7.37856094 1.01765167 7.37548431 0.11352539 7.37231445 C-0.66067245 7.37373947 -1.4348703 7.37516449 -2.23252869 7.37663269 C-4.13671875 7.12939453 -4.13671875 7.12939453 -6.13671875 5.12939453 C-5.43811742 0.51862574 -4.48909072 0.00459996 0 0 Z " fill="#060606" transform="translate(146.13671875,215.87060546875)"/>
<path d="M0 0 C0.87760986 -0.00315216 1.75521973 -0.00630432 2.65942383 -0.009552 C3.61357178 -0.00752777 4.56771973 -0.00550354 5.55078125 -0.00341797 C6.52362061 -0.00437469 7.49645996 -0.00533142 8.4987793 -0.00631714 C10.56005925 -0.00699905 12.62134133 -0.00514399 14.68261719 -0.00097656 C17.84965813 0.00437153 21.01655725 -0.00092119 24.18359375 -0.00732422 C26.1809899 -0.00666344 28.17838596 -0.00538228 30.17578125 -0.00341797 C31.1299292 -0.0054422 32.08407715 -0.00746643 33.06713867 -0.009552 C34.38355347 -0.00482376 34.38355347 -0.00482376 35.7265625 0 C36.50298096 0.00079559 37.27939941 0.00159119 38.0793457 0.00241089 C39.86328125 0.12939453 39.86328125 0.12939453 40.86328125 1.12939453 C40.98828125 3.62939453 40.98828125 3.62939453 40.86328125 6.12939453 C39.3217157 7.67096008 37.88882361 7.26407947 35.74243164 7.2746582 C34.43085838 7.28422798 34.43085838 7.28422798 33.0927887 7.29399109 C31.66627235 7.29566032 31.66627235 7.29566032 30.2109375 7.29736328 C28.75523598 7.30235588 28.75523598 7.30235588 27.27012634 7.30744934 C25.21304805 7.31252283 23.1559615 7.31485754 21.09887695 7.31469727 C17.94273381 7.31688279 14.78694054 7.33503145 11.63085938 7.35400391 C9.63671995 7.35693786 7.64257886 7.35892264 5.6484375 7.35986328 C4.2249575 7.37064156 4.2249575 7.37064156 2.77272034 7.38163757 C1.895186 7.37856094 1.01765167 7.37548431 0.11352539 7.37231445 C-0.66067245 7.37373947 -1.4348703 7.37516449 -2.23252869 7.37663269 C-4.13671875 7.12939453 -4.13671875 7.12939453 -6.13671875 5.12939453 C-5.43811742 0.51862574 -4.48909072 0.00459996 0 0 Z " fill="#060606" transform="translate(146.13671875,179.87060546875)"/>
<path d="M0 0 C0.87760986 -0.00315216 1.75521973 -0.00630432 2.65942383 -0.009552 C3.61357178 -0.00752777 4.56771973 -0.00550354 5.55078125 -0.00341797 C6.52362061 -0.00437469 7.49645996 -0.00533142 8.4987793 -0.00631714 C10.56005925 -0.00699905 12.62134133 -0.00514399 14.68261719 -0.00097656 C17.84965813 0.00437153 21.01655725 -0.00092119 24.18359375 -0.00732422 C26.1809899 -0.00666344 28.17838596 -0.00538228 30.17578125 -0.00341797 C31.1299292 -0.0054422 32.08407715 -0.00746643 33.06713867 -0.009552 C34.38355347 -0.00482376 34.38355347 -0.00482376 35.7265625 0 C36.50298096 0.00079559 37.27939941 0.00159119 38.0793457 0.00241089 C39.86328125 0.12939453 39.86328125 0.12939453 40.86328125 1.12939453 C40.98828125 3.62939453 40.98828125 3.62939453 40.86328125 6.12939453 C39.3217157 7.67096008 37.88882361 7.26407947 35.74243164 7.2746582 C34.43085838 7.28422798 34.43085838 7.28422798 33.0927887 7.29399109 C31.66627235 7.29566032 31.66627235 7.29566032 30.2109375 7.29736328 C28.75523598 7.30235588 28.75523598 7.30235588 27.27012634 7.30744934 C25.21304805 7.31252283 23.1559615 7.31485754 21.09887695 7.31469727 C17.94273381 7.31688279 14.78694054 7.33503145 11.63085938 7.35400391 C9.63671995 7.35693786 7.64257886 7.35892264 5.6484375 7.35986328 C4.2249575 7.37064156 4.2249575 7.37064156 2.77272034 7.38163757 C1.895186 7.37856094 1.01765167 7.37548431 0.11352539 7.37231445 C-0.66067245 7.37373947 -1.4348703 7.37516449 -2.23252869 7.37663269 C-4.13671875 7.12939453 -4.13671875 7.12939453 -6.13671875 5.12939453 C-5.43811742 0.51862574 -4.48909072 0.00459996 0 0 Z " fill="#030303" transform="translate(146.13671875,143.87060546875)"/>
<path d="M0 0 C2.01390024 2.17501226 2.98325776 3.36379489 3.0625 6.375 C1.51293236 10.20334359 -0.96186652 12.22043107 -4 15 C-5.32 14.34 -6.64 13.68 -8 13 C-6.66071429 5.09821429 -6.66071429 5.09821429 -2.875 2 C-1.92625 1.34 -0.9775 0.68 0 0 Z " fill="#0A0A0A" transform="translate(265,217)"/>
<path d="M0 0 C6.24795675 -0.02527124 12.49590041 -0.04283344 18.74389648 -0.05493164 C20.87118014 -0.05997298 22.99846031 -0.06680591 25.12573242 -0.07543945 C28.17627826 -0.08751379 31.22677845 -0.09323014 34.27734375 -0.09765625 C35.71327126 -0.10539818 35.71327126 -0.10539818 37.1782074 -0.11329651 C38.49946373 -0.11340981 38.49946373 -0.11340981 39.84741211 -0.11352539 C40.62684677 -0.115746 41.40628143 -0.11796661 42.20933533 -0.12025452 C44 0 44 0 45 1 C45.04063832 2.66617115 45.042721 4.33388095 45 6 C44.70053467 5.35256836 44.40106934 4.70513672 44.0925293 4.03808594 C40.73640464 0.76928082 37.0332491 1.39676498 32.51953125 1.390625 C31.12754768 1.36582062 31.12754768 1.36582062 29.70744324 1.34051514 C26.74239565 1.29191573 23.77786134 1.27063778 20.8125 1.25 C18.80270838 1.2218503 16.7929408 1.19192429 14.78320312 1.16015625 C9.85551099 1.08615355 4.9281058 1.03665194 0 1 C0 0.67 0 0.34 0 0 Z " fill="#171717" transform="translate(142,144)"/>
<path d="M0 0 C1.67542976 0.28604898 3.34385343 0.61781233 5 1 C5.6875 2.8125 5.6875 2.8125 6 5 C4.5625 6.75 4.5625 6.75 3 8 C0.525 7.01 0.525 7.01 -2 6 C-1.125 1.125 -1.125 1.125 0 0 Z " fill="#272727" transform="translate(162,79)"/>
</svg>
