<?xml version="1.0" encoding="utf-8"?>
<!-- Generator: Adobe Illustrator 25.0.1, SVG Export Plug-In . SVG Version: 6.00 Build 0)  -->
<svg version="1.0" id="katman_1" xmlns="http://www.w3.org/2000/svg" xmlns:xlink="http://www.w3.org/1999/xlink" x="0px" y="0px"
	 viewBox="0 0 800 600" style="enable-background:new 0 0 800 600;" xml:space="preserve">
<style type="text/css">
	.st0{fill-rule:evenodd;clip-rule:evenodd;fill:#1D1D1B;}
	.st1{fill:#1D1D1B;}
</style>
<desc>Created with Sketch.</desc>
<g id="kleros-logo-fullwhite">
	<path id="Combined-Shape" class="st0" d="M150.1,190l124.3,5.6l50.3,112l-71,102.4l-125-8L77.5,280.6L150.1,190z M241.2,254.6
		L151.1,294l77,59.6L241.2,254.6z M230.8,234.8l-72-31l-15.1,65.3L230.8,234.8z M212.5,368.7l-78.3-56l1.9,75.8L212.5,368.7z
		 M312.2,307.3l-53.3-54.2l-14.1,104.2L312.2,307.3z M230.9,380.8l-66,17.3l77.6,5L230.9,380.8z M301.8,331.9L244,375l11.5,22.5
		L301.8,331.9z M274.5,211.2l-11.2,23.1l41.8,42.5L274.5,211.2z M260.5,200.2l-73.4-3l60.5,26.5L260.5,200.2z M139.4,210.9l-51.4,65
		l34.4,7.3L139.4,210.9z M120.3,295.9l-34.5-7.3l36,85L120.3,295.9z"/>
	<g id="kleros-logo" transform="translate(36.000000, 35.000000)">
		<g id="Group">
		</g>
		<g id="Group_1_" transform="translate(393.000000, 103.000000)">
			<polygon id="Path" class="st0" points="-53.9,157.9 -51.2,157.9 -32.1,132.7 -26.6,137 -45.1,160.5 -23.4,186.8 -28.8,191.4 
				-51.4,163.8 -53.9,163.8 -53.9,190 -61.1,190 -61.1,134.1 -53.9,134.1 			"/>
			<polygon id="Path_1_" class="st0" points="4,134.1 11.2,134.1 11.2,183.6 40.4,183.6 40.4,190 4,190 			"/>
			<polygon id="Path_2_" class="st0" points="66.8,134.1 101.6,134.1 101.6,140.5 74,140.5 74,157.3 96.8,157.3 96.8,163.7 
				74,163.7 74,183.6 101.6,183.6 101.6,190 66.8,190 			"/>
			<path id="Shape" class="st1" d="M130.2,134.1h18.9c9.3,0,16.7,4.4,16.7,15.3c0,6.9-4.6,13.6-11.3,15.7l13.7,22.7l-6.2,3.8
				l-14.2-25.4h-10.4v24h-7.2V134.1z M146.8,159.6c7,0,11.6-4,11.6-10.3c0-5-3-8.8-9.4-8.8h-11.6v19.1H146.8z"/>
			<path id="Shape_1_" class="st1" d="M230.4,162.1c0,4.5-0.3,28.9-19.8,28.9c-9,0-19.8-6.4-19.8-28.9c0-22.3,10.6-29,19.8-29
				C219.5,133.1,230.4,139.5,230.4,162.1z M198.3,162.1c0,8.2,1.5,22.1,12.3,22.1c10.8,0,12.3-14,12.3-22.1
				c0-8.3-1.5-22.2-12.3-22.2C199.8,139.9,198.3,153.8,198.3,162.1z"/>
			<path id="Path_3_" class="st0" d="M263.1,172.3c1.4,6.9,4.7,11.9,12.2,11.9c5.9,0,10.5-3.2,10.5-9.5c0-6.9-5.8-8.6-11.2-10.8
				c-8.1-3.4-15.8-5.6-15.8-16.1c0-9.5,7.6-14.7,16.4-14.7c9.3,0,14.8,5.4,17,14.1l-6.9,2c-1.3-5.5-4.2-9.3-10.3-9.3
				c-4.6,0-9.1,2.4-9.1,7.4c0,5.3,3.2,6.8,7.5,8.7l11.9,5.3c5,2.8,7.7,7.3,7.7,13.1c0,10.6-7.4,16.7-17.7,16.7
				c-10.4,0-16.9-6.7-18.6-16.7L263.1,172.3z"/>
		</g>
	</g>
</g>
</svg>
